<svg version="1.2" xmlns="http://www.w3.org/2000/svg" viewBox="0 0 2800 1341" width="2800" height="1341">
	<title>vecteezy_book-icon-set_165277</title>
	<style>
		.s0 { fill: #000000 } 
	</style>
	<g>
	</g>
	<path id="Top" fill-rule="evenodd" class="s0" d="m1098.3 124.2l-117.3 46.8-103.3-46.3c-15.4-35.9 0-58.3 0-58.3l81.5-37.9 138.4 44.7c1.5 0.5 1.6 2.6 0.1 3.1l-6.4 2.2c-0.1 0.1-0.1 0.2-0.1 0.2-6.6 12.4-6.6 24.5 0 36.9 0.2 0.4 0.4 0.9 0.4 1.3l6.6 2.4c2.4 0.8 2.4 4 0.1 4.9zm-113.9-2.5c0 0.1 0 0.1 0 0.2-0.3 0.6-0.6 1.2-0.9 1.8 0 0 0 0 0 0q-0.4 0.9-0.7 1.8 0 0.1-0.1 0.2c-0.2 0.6-0.4 1.2-0.6 1.8 0 0.1-0.1 0.2-0.1 0.3-0.2 0.6-0.4 1.2-0.5 1.8 0 0-0.1 0.1-0.1 0.2q-0.2 0.8-0.4 1.7c0 0 0 0.1 0 0.1-0.1 0.6-0.2 1.2-0.3 1.8 0 0.1 0 0.2 0 0.3-0.1 0.6-0.2 1.2-0.2 1.7-0.1 0.1-0.1 0.2-0.1 0.3q-0.1 0.9-0.1 1.8c0 0 0 0 0 0.1 0 0.6 0 1.1 0 1.7 0 0.1 0 0.2 0 0.3 0 0.6 0 1.2 0.1 1.7 0 0.1 0 0.2 0 0.3 0.1 0.6 0.1 1.2 0.2 1.7 0 0.1 0 0.2 0 0.3q0.1 0.8 0.3 1.6c0 0.1 0.1 0.1 0.1 0.2 0.1 0.6 0.2 1.2 0.3 1.8 0.1 0.1 0.1 0.2 0.1 0.3 0.2 0.5 0.3 1.1 0.5 1.7 0 0.1 0 0.2 0.1 0.3q0.2 0.9 0.6 1.8 0.3 0.9 0.7 1.8c0 0 0 0.1 0.1 0.1l97.1-37.9c-4.2-10.1-4.9-20.3-2-30.4zm1364.8 215.5l-117.3 46.9-103.3-46.4c-15.4-35.9 0-58.3 0-58.3l81.5-37.9 138.4 44.8c1.5 0.4 1.6 2.5 0.1 3l-6.4 2.3c-0.1 0-0.1 0.1-0.1 0.1-6.6 12.5-6.6 24.6 0 37 0.2 0.4 0.4 0.8 0.5 1.3l6.5 2.3c2.4 0.8 2.5 4.1 0.1 4.9zm-113.8-2.5c-0.1 0.1-0.1 0.2-0.1 0.2-0.3 0.6-0.6 1.2-0.8 1.8-0.1 0-0.1 0-0.1 0q-0.4 0.9-0.7 1.8 0 0.1-0.1 0.3c-0.2 0.6-0.4 1.1-0.6 1.7 0 0.1-0.1 0.2-0.1 0.4-0.2 0.5-0.3 1.1-0.5 1.7 0 0-0.1 0.1-0.1 0.2q-0.1 0.9-0.3 1.7c0 0-0.1 0.1-0.1 0.2-0.1 0.6-0.2 1.1-0.3 1.7 0 0.1 0 0.2 0 0.3-0.1 0.6-0.2 1.2-0.2 1.7-0.1 0.1-0.1 0.3-0.1 0.3q-0.1 0.9-0.1 1.8c0 0.1 0 0.1 0 0.1 0 0.6 0 1.1 0 1.7 0 0.1 0 0.3 0 0.3 0 0.6 0 1.2 0.1 1.7 0 0.2 0 0.2 0 0.4 0.1 0.5 0.1 1.1 0.2 1.7 0 0 0 0.1 0 0.2q0.2 0.8 0.3 1.6c0 0.1 0.1 0.2 0.1 0.2 0.1 0.6 0.2 1.2 0.4 1.8 0 0.1 0 0.2 0 0.3 0.2 0.6 0.3 1.2 0.5 1.7 0 0.1 0.1 0.2 0.1 0.3q0.3 0.9 0.6 1.8 0.3 0.9 0.7 1.8c0.1 0 0.1 0.1 0.1 0.2l97.1-38c-4.2-10.1-4.9-20.2-2-30.3zm-1570.9-180.5l79.5 112.5c0.9 1.3 1.2 2.9 0.6 4.4-0.3 0.9-0.9 1.7-1.7 2.3q-0.7 0.4-1.5 0.7l-20.9 5.6c-14.3 3.8-27.2 9.8-38.4 17.7-11.2 7.9-21.1 18.1-29.5 30.2l-3.2 4.6c0 0-0.1 0.1-0.1 0.1 0 0.1 0 0.1-0.1 0.1 0 0.1 0 0.1-0.1 0.1q0 0.2-0.1 0.2c0 0-0.1 0.1-0.1 0.2-0.1 0-0.1 0-0.1 0q0 0-0.1 0.1 0 0-0.1 0 0 0.1-0.1 0.1c-0.1 0.1-0.2 0.2-0.3 0.3-0.1 0-0.3 0.1-0.4 0.2q0 0 0 0c-0.1 0.1-0.2 0.1-0.2 0.1q0 0-0.1 0.1 0 0-0.1 0c-0.1 0.1-0.2 0.1-0.4 0.2 0 0 0 0-0.1 0 0 0-0.1 0-0.1 0.1-0.1 0-0.1 0-0.2 0l-5.3 1.5c-14.3 3.8-27.2 9.8-38.4 17.7-11.2 7.9-21.1 18-29.5 30.2l-12.3 17.8c-0.9 1.3-2.3 2.1-3.9 2.1-1.5 0-3-0.8-3.9-2l-79.5-112.6c-1.5-2.2-1-5.1 1.2-6.6l8.3-6-5.2-7.3c-1-1.5-1.1-3.3-0.4-4.9 0.6-1 1.1-2.1 1.6-3.1q0.3-0.4 0.5-0.9c0.5-0.7 0.8-1.4 1.2-2.2 0.2-0.3 0.5-0.7 0.7-1.1q0.5-1 1.1-1.9c0.2-0.3 0.5-0.8 0.7-1.2q0.6-0.8 1.1-1.6c0.3-0.5 0.5-0.9 0.8-1.3 0.4-0.5 0.7-1 1-1.6 0.3-0.4 0.6-0.8 0.9-1.2 0.4-0.5 0.7-1 1-1.5 0.3-0.4 0.7-0.8 1-1.2 0.3-0.4 0.6-0.9 1-1.4 0.3-0.4 0.6-0.8 1-1.2q0.5-0.6 1-1.3 0.5-0.6 1-1.2c0.4-0.4 0.8-0.9 1.1-1.3 0.4-0.4 0.7-0.8 1.1-1.2q0.5-0.6 1.1-1.2c0.4-0.4 0.7-0.8 1.1-1.1 0.4-0.4 0.7-0.8 1.1-1.2q0.6-0.5 1.1-1.1c0.4-0.4 0.8-0.7 1.2-1.1 0.3-0.4 0.7-0.7 1.1-1.1 0.4-0.4 0.8-0.7 1.2-1.1q0.6-0.5 1.1-1c0.5-0.3 0.9-0.7 1.3-1 0.4-0.3 0.8-0.6 1.2-1 0.4-0.3 0.8-0.6 1.3-1 0.4-0.3 0.8-0.6 1.2-0.9 0.4-0.4 0.9-0.7 1.3-1q0.7-0.4 1.3-0.9c0.4-0.3 0.9-0.6 1.3-0.8q0.7-0.5 1.3-0.9c0.4-0.3 0.9-0.6 1.3-0.9q0.7-0.4 1.4-0.8c0.4-0.2 0.9-0.5 1.3-0.8 0.5-0.2 1-0.5 1.4-0.7 0.5-0.3 0.9-0.6 1.4-0.8 0.5-0.2 0.9-0.5 1.4-0.7 0.5-0.2 1-0.5 1.4-0.7q0.7-0.4 1.4-0.7c0.5-0.2 1-0.4 1.5-0.7q0.7-0.3 1.4-0.6c0.5-0.3 1-0.5 1.5-0.7q0.8-0.3 1.5-0.5c0.5-0.3 1-0.4 1.6-0.6 0.5-0.2 1-0.4 1.5-0.6 0.5-0.2 1-0.3 1.5-0.5 0.6-0.2 1.1-0.4 1.6-0.5 0.5-0.2 1-0.3 1.6-0.5q0.7-0.3 1.5-0.5c0.6-0.1 1.1-0.3 1.7-0.4q0.7-0.3 1.5-0.5c0.6-0.1 1.1-0.2 1.7-0.4q0.8-0.1 1.6-0.3c0.6-0.1 1.2-0.3 1.8-0.4q0.8-0.1 1.6-0.3 0.9-0.1 1.8-0.3c0.5-0.1 1-0.2 1.6-0.3 0.6 0 1.2-0.2 1.8-0.2 0.6-0.1 1.1-0.2 1.7-0.3 0.1 0 0.3 0 0.5 0 0-0.2 0.1-0.3 0.2-0.5 0.2-0.4 0.5-0.9 0.7-1.4q0.5-0.8 0.9-1.6c0.3-0.5 0.5-1 0.8-1.4q0.4-0.8 0.9-1.6c0.3-0.4 0.6-0.9 0.8-1.3 0.3-0.6 0.6-1.1 0.9-1.6 0.3-0.4 0.6-0.9 0.9-1.3q0.5-0.8 1-1.5c0.3-0.5 0.6-0.9 0.9-1.3 0.3-0.5 0.6-1 1-1.5 0.3-0.4 0.6-0.8 0.9-1.2q0.5-0.8 1-1.4c0.3-0.5 0.6-0.9 1-1.3q0.5-0.6 1.1-1.3c0.3-0.5 0.6-0.8 0.9-1.2 0.4-0.4 0.8-0.9 1.1-1.3 0.4-0.4 0.7-0.8 1-1.2q0.6-0.6 1.2-1.2c0.3-0.4 0.7-0.8 1-1.1 0.4-0.4 0.8-0.8 1.2-1.2 0.4-0.4 0.7-0.7 1.1-1.1q0.6-0.6 1.2-1.1c0.3-0.4 0.7-0.7 1.1-1.1q0.6-0.6 1.2-1.1 0.5-0.5 1.1-1 0.6-0.5 1.3-1.1 0.5-0.4 1.1-0.9c0.4-0.4 0.9-0.7 1.3-1 0.4-0.3 0.8-0.6 1.2-0.9q0.7-0.5 1.3-1 0.6-0.4 1.2-0.9c0.5-0.3 1-0.6 1.4-0.9 0.4-0.3 0.8-0.5 1.3-0.8 0.4-0.3 0.9-0.6 1.4-0.9q0.5-0.4 1.2-0.8 0.7-0.4 1.4-0.8 0.7-0.4 1.3-0.8c0.5-0.2 1-0.5 1.5-0.8 0.4-0.2 0.9-0.4 1.3-0.7q0.8-0.3 1.5-0.7c0.5-0.2 0.9-0.4 1.4-0.6q0.7-0.4 1.5-0.8c0.5-0.2 0.9-0.3 1.4-0.6q0.8-0.3 1.6-0.6c0.5-0.2 0.9-0.4 1.4-0.6 0.5-0.2 1.1-0.4 1.6-0.6 0.5-0.2 0.9-0.4 1.4-0.5q0.9-0.3 1.7-0.6c0.4-0.2 0.9-0.4 1.4-0.5 0.6-0.2 1.2-0.3 1.7-0.5 0.5-0.2 1-0.3 1.5-0.5 0.6-0.1 1.1-0.3 1.7-0.5q0.8-0.2 1.5-0.3 0.9-0.3 1.8-0.5c0.5-0.2 1-0.2 1.5-0.4 0.6-0.1 1.3-0.2 1.9-0.3q0.7-0.2 1.4-0.4c0.7-0.1 1.4-0.2 2.1-0.4 0.4 0 0.9-0.1 1.3-0.2 0.8-0.1 1.7-0.2 2.5-0.3q0.4-0.1 0.9-0.2c1.2-0.2 2.3-0.3 3.6-0.4 1.7-0.2 3.4 0.5 4.4 1.9l5.2 7.4 8.4-6c2.2-1.5 5.1-0.9 6.7 1zm43.1 104.1l-69.6-98.5q-1.5 0.2-3.1 0.5c-0.3 0-0.6 0.1-1 0.1-0.7 0.2-1.3 0.3-2 0.4-0.4 0.1-0.8 0.1-1.2 0.2q-0.9 0.2-1.8 0.4c-0.4 0.1-0.8 0.2-1.2 0.2-0.6 0.2-1.1 0.3-1.7 0.4-0.4 0.1-0.8 0.3-1.2 0.4-0.6 0.1-1.1 0.2-1.6 0.4q-0.7 0.1-1.3 0.3c-0.5 0.2-1 0.3-1.5 0.5-0.5 0.1-0.9 0.3-1.3 0.4-0.5 0.1-1 0.3-1.5 0.4-0.4 0.2-0.9 0.4-1.3 0.5q-0.7 0.3-1.4 0.5c-0.4 0.2-0.8 0.4-1.3 0.5-0.4 0.2-0.9 0.4-1.3 0.5-0.5 0.2-0.9 0.4-1.3 0.6q-0.7 0.2-1.3 0.6-0.6 0.2-1.3 0.5-0.6 0.3-1.3 0.6c-0.4 0.2-0.8 0.5-1.2 0.7-0.4 0.2-0.8 0.4-1.2 0.6q-0.7 0.3-1.3 0.7c-0.4 0.2-0.8 0.4-1.2 0.7q-0.6 0.3-1.2 0.7c-0.4 0.2-0.7 0.4-1.1 0.7q-0.6 0.3-1.2 0.7c-0.4 0.3-0.8 0.5-1.2 0.8q-0.6 0.3-1.1 0.7c-0.4 0.3-0.8 0.5-1.1 0.8q-0.6 0.5-1.2 0.9c-0.3 0.2-0.7 0.5-1 0.7-0.4 0.4-0.7 0.6-1.1 0.9-0.3 0.3-0.7 0.6-1 0.9q-0.6 0.4-1.1 0.9c-0.3 0.3-0.7 0.6-1 0.8-0.4 0.4-0.7 0.7-1.1 1-0.3 0.3-0.7 0.6-1 0.9-0.3 0.4-0.7 0.7-1 1-0.4 0.3-0.7 0.6-1 1q-0.5 0.5-1 1c-0.3 0.3-0.7 0.6-0.9 1q-0.6 0.5-1.1 1c-0.3 0.3-0.6 0.7-0.9 1q-0.5 0.6-0.9 1.1c-0.3 0.4-0.6 0.8-0.9 1.1q-0.5 0.6-1 1.2c-0.3 0.4-0.5 0.7-0.8 1.1-0.4 0.4-0.7 0.8-1 1.2-0.2 0.4-0.5 0.8-0.8 1.2q-0.4 0.6-0.8 1.2c-0.3 0.4-0.6 0.8-0.9 1.2q-0.4 0.7-0.8 1.3c-0.2 0.3-0.5 0.8-0.8 1.2-0.2 0.4-0.5 0.8-0.8 1.3q-0.4 0.6-0.8 1.3-0.4 0.6-0.8 1.3c-0.2 0.4-0.5 0.9-0.7 1.3-0.3 0.5-0.5 0.9-0.8 1.3-0.2 0.5-0.5 1-0.7 1.5-0.3 0.4-0.5 0.9-0.7 1.3-0.1 0-0.1 0.1-0.1 0.1l78.6 111.4c0.1-0.2 0.2-0.3 0.3-0.5 0.4-0.5 0.7-1 1.1-1.5 0.2-0.4 0.5-0.8 0.7-1.2 0.2-0.3 0.4-0.6 0.6-0.9 0.4-0.5 0.8-1.1 1.1-1.6q3.7-5.5 7.4-11c13.6-19.6 28.6-38.1 51-46.4zm-76.6 70q1.5-0.4 3-0.7c0.3-0.1 0.7-0.2 1-0.3q1-0.2 2.1-0.5c0.2-0.1 0.3-0.1 0.5-0.1l-78.7-111.4c0 0-0.1 0-0.2 0-0.5 0.1-1 0.1-1.4 0.2-0.5 0.1-1.1 0.2-1.6 0.3-0.5 0.1-1 0.1-1.5 0.2-0.5 0.1-1.1 0.2-1.6 0.3-0.5 0.1-0.9 0.2-1.4 0.3q-0.8 0.1-1.5 0.3c-0.5 0.1-1 0.2-1.5 0.3-0.4 0.2-0.9 0.2-1.4 0.4q-0.7 0.1-1.4 0.3-0.7 0.2-1.5 0.4c-0.4 0.1-0.9 0.3-1.3 0.4-0.5 0.2-1 0.3-1.4 0.5-0.5 0.1-0.9 0.2-1.4 0.4-0.5 0.2-0.9 0.3-1.4 0.5q-0.7 0.2-1.4 0.5-0.6 0.2-1.3 0.5c-0.5 0.1-0.9 0.3-1.4 0.5q-0.6 0.2-1.3 0.5c-0.4 0.2-0.8 0.4-1.3 0.6q-0.6 0.2-1.3 0.5-0.6 0.3-1.3 0.6-0.5 0.3-1.2 0.6c-0.4 0.2-0.8 0.5-1.3 0.7-0.4 0.2-0.8 0.4-1.2 0.6q-0.6 0.3-1.2 0.7-0.6 0.3-1.2 0.7-0.6 0.3-1.2 0.7c-0.4 0.2-0.8 0.5-1.2 0.7-0.4 0.2-0.8 0.4-1.2 0.7-0.3 0.3-0.8 0.5-1.1 0.8-0.4 0.2-0.8 0.5-1.2 0.7q-0.5 0.4-1.1 0.8c-0.4 0.3-0.7 0.6-1.1 0.9-0.4 0.2-0.7 0.5-1.1 0.8-0.4 0.3-0.7 0.5-1.1 0.8q-0.5 0.5-1.1 0.9c-0.3 0.3-0.6 0.6-1 0.9q-0.5 0.5-1.1 0.9c-0.3 0.3-0.6 0.6-1 0.9-0.4 0.4-0.7 0.7-1 1-0.3 0.4-0.7 0.7-1 1-0.3 0.3-0.7 0.7-1 1-0.3 0.3-0.7 0.7-0.9 1-0.4 0.3-0.7 0.7-1.1 1.1-0.2 0.3-0.6 0.6-0.9 1-0.3 0.3-0.6 0.7-0.9 1.1-0.3 0.3-0.6 0.7-0.9 1-0.4 0.4-0.6 0.8-1 1.2q-0.4 0.5-0.8 1.1c-0.3 0.4-0.6 0.8-0.9 1.2q-0.5 0.5-0.9 1-0.4 0.7-0.9 1.3-0.4 0.5-0.8 1.1c-0.3 0.5-0.6 0.9-0.9 1.4-0.3 0.4-0.5 0.7-0.8 1.1-0.3 0.4-0.6 0.9-0.9 1.4-0.2 0.4-0.4 0.7-0.7 1.1-0.3 0.5-0.6 1-0.9 1.5q-0.3 0.6-0.6 1.1c-0.3 0.6-0.6 1.1-1 1.7q-0.3 0.5-0.5 1c-0.4 0.8-0.8 1.5-1.2 2.3q-0.2 0.2-0.3 0.5l69.6 98.5c4.2-5 9-9.3 14.2-13q2.5-1.7 5-3.2c16.1-9.9 35.6-14.8 54.5-19.8zm-41.4 23.4c-11.3 5.4-21.2 12.6-28.6 23.3-0.9 1.3-2.3 2.1-3.8 2.1q-0.6 0-1.2-0.1c-0.9-0.3-1.7-0.8-2.4-1.4-0.1-0.2-0.2-0.3-0.4-0.5l-64.2-91-4.6 3.2 72.8 103.1 8.5-12.1c7-10.2 15-19 23.9-26.6zm142.7-84.8l-72.8-103.1-4.6 3.2 64.3 91c0.9 1.3 1.1 2.9 0.6 4.4-0.5 1.4-1.8 2.6-3.3 2.9-12.5 3.5-22.6 10.3-31.5 19.2 10-5.9 21.1-10.5 33-13.7l14.3-3.9zm1141.2-262.7l79.5 112.6c0.9 1.2 1.1 2.9 0.6 4.3-0.3 0.9-0.9 1.7-1.7 2.3q-0.7 0.5-1.6 0.7l-20.9 5.6c-14.2 3.9-27.1 9.8-38.3 17.7-11.3 7.9-21.2 18.1-29.6 30.3l-3.1 4.5c0 0-0.1 0.1-0.1 0.2-0.1 0-0.1 0-0.1 0.1 0 0-0.1 0-0.1 0.1q0 0.1-0.1 0.1c-0.1 0.1-0.1 0.1-0.2 0.2 0 0 0 0-0.1 0q0 0 0 0.1-0.1 0-0.1 0.1-0.1 0-0.1 0c-0.1 0.1-0.3 0.2-0.4 0.3-0.1 0-0.2 0.1-0.3 0.2q-0.1 0.1-0.1 0c0 0.1-0.1 0.1-0.2 0.1q0 0 0 0.1-0.1 0-0.1 0.1c-0.2 0-0.3 0.1-0.4 0.1 0 0-0.1 0-0.1 0-0.1 0.1-0.1 0.1-0.1 0.1-0.1 0-0.2 0-0.2 0l-5.4 1.5c-14.2 3.8-27.2 9.8-38.3 17.7-11.2 7.9-21.1 18.1-29.5 30.2l-12.3 17.8c-0.9 1.3-2.4 2.1-3.9 2.1-1.6 0-3-0.7-3.9-2l-79.5-112.6c-1.5-2.1-1-5.1 1.1-6.6l8.4-5.9-5.2-7.4c-1-1.4-1.2-3.3-0.4-4.8 0.6-1.1 1.1-2.1 1.6-3.2q0.3-0.4 0.5-0.8c0.4-0.8 0.8-1.5 1.2-2.2 0.2-0.4 0.4-0.8 0.6-1.2q0.6-0.9 1.1-1.8c0.3-0.4 0.6-0.8 0.8-1.2q0.5-0.9 1-1.7c0.3-0.4 0.6-0.9 0.9-1.3 0.3-0.5 0.6-1 1-1.5 0.3-0.4 0.6-0.9 0.9-1.3 0.3-0.4 0.7-1 1-1.4 0.3-0.5 0.6-0.8 0.9-1.3 0.4-0.4 0.7-0.9 1.1-1.4 0.3-0.4 0.6-0.8 0.9-1.2q0.6-0.6 1.1-1.3 0.5-0.6 1-1.2c0.4-0.4 0.7-0.8 1.1-1.3 0.3-0.4 0.7-0.7 1.1-1.1q0.5-0.6 1.1-1.3c0.3-0.3 0.7-0.7 1-1.1 0.4-0.4 0.8-0.8 1.2-1.2q0.5-0.5 1.1-1.1c0.4-0.3 0.7-0.7 1.1-1.1 0.4-0.4 0.8-0.7 1.2-1 0.4-0.4 0.7-0.8 1.2-1.1q0.5-0.6 1.1-1.1c0.4-0.3 0.8-0.6 1.3-1 0.3-0.3 0.8-0.6 1.2-0.9 0.4-0.4 0.8-0.7 1.2-1 0.5-0.4 0.9-0.7 1.3-1 0.4-0.3 0.8-0.6 1.3-0.9q0.6-0.5 1.3-1c0.4-0.2 0.8-0.5 1.3-0.8q0.6-0.5 1.3-0.9c0.4-0.3 0.9-0.6 1.3-0.8q0.7-0.5 1.3-0.8c0.5-0.3 1-0.6 1.4-0.8 0.5-0.3 0.9-0.5 1.4-0.8 0.4-0.3 0.9-0.5 1.4-0.8 0.5-0.2 0.9-0.5 1.4-0.7 0.4-0.2 0.9-0.5 1.4-0.7q0.7-0.3 1.4-0.7c0.5-0.2 1-0.4 1.5-0.7q0.7-0.3 1.4-0.6c0.5-0.2 1-0.4 1.5-0.6q0.7-0.3 1.5-0.6c0.5-0.2 1-0.4 1.5-0.6 0.5-0.2 1-0.3 1.5-0.5 0.6-0.2 1.1-0.4 1.6-0.6 0.5-0.1 1-0.3 1.5-0.5 0.6-0.2 1.1-0.3 1.6-0.5q0.8-0.2 1.6-0.5c0.6-0.1 1.1-0.3 1.6-0.4q0.8-0.2 1.6-0.4c0.6-0.2 1.1-0.3 1.7-0.4q0.8-0.2 1.6-0.4c0.6-0.1 1.1-0.2 1.7-0.3q0.8-0.2 1.6-0.3 0.9-0.2 1.8-0.4c0.6-0.1 1.1-0.2 1.7-0.2 0.6-0.1 1.2-0.2 1.8-0.3 0.6-0.1 1.1-0.2 1.6-0.2 0.2 0 0.4-0.1 0.5-0.1 0.1-0.2 0.2-0.3 0.2-0.4 0.3-0.5 0.6-1 0.8-1.4q0.4-0.9 0.9-1.7c0.2-0.4 0.5-0.9 0.8-1.4q0.4-0.8 0.9-1.6c0.2-0.4 0.5-0.9 0.8-1.3 0.3-0.5 0.6-1 0.9-1.6 0.3-0.4 0.6-0.8 0.9-1.3q0.4-0.8 0.9-1.5c0.4-0.4 0.6-0.9 0.9-1.3 0.4-0.5 0.7-1 1-1.4 0.4-0.5 0.6-0.9 1-1.3q0.5-0.7 1-1.4c0.3-0.5 0.6-0.9 0.9-1.3q0.6-0.6 1.1-1.3c0.3-0.4 0.6-0.8 1-1.2 0.4-0.4 0.7-0.9 1.1-1.3 0.3-0.4 0.7-0.7 1-1.1q0.6-0.7 1.1-1.3c0.4-0.4 0.7-0.7 1.1-1.1 0.4-0.4 0.8-0.8 1.2-1.2 0.3-0.4 0.7-0.7 1-1.1q0.6-0.5 1.2-1.1c0.4-0.4 0.8-0.7 1.1-1.1q0.6-0.5 1.3-1.1 0.5-0.5 1.1-1 0.6-0.5 1.2-1 0.6-0.5 1.2-1c0.4-0.3 0.9-0.7 1.3-1 0.4-0.3 0.8-0.6 1.2-0.9q0.6-0.5 1.3-1 0.6-0.4 1.2-0.8c0.5-0.4 0.9-0.7 1.4-1 0.4-0.2 0.8-0.5 1.2-0.8 0.5-0.3 0.9-0.6 1.4-0.9q0.6-0.4 1.3-0.8 0.7-0.4 1.4-0.8 0.6-0.4 1.3-0.8c0.5-0.2 1-0.5 1.5-0.7 0.4-0.2 0.8-0.5 1.3-0.7q0.8-0.4 1.5-0.8c0.5-0.2 0.9-0.4 1.4-0.6q0.7-0.4 1.5-0.7c0.4-0.3 0.9-0.4 1.4-0.6q0.8-0.4 1.5-0.7c0.5-0.2 1-0.4 1.4-0.6 0.6-0.2 1.1-0.4 1.6-0.6 0.5-0.2 1-0.3 1.5-0.5q0.8-0.3 1.7-0.6c0.4-0.1 0.9-0.3 1.4-0.5 0.5-0.1 1.1-0.3 1.7-0.5 0.4-0.2 0.9-0.3 1.4-0.4 0.6-0.2 1.2-0.4 1.8-0.5q0.7-0.2 1.5-0.4 0.9-0.3 1.8-0.5c0.5-0.1 0.9-0.2 1.4-0.3 0.7-0.2 1.3-0.3 2-0.4q0.7-0.2 1.4-0.3c0.7-0.2 1.4-0.3 2.1-0.4 0.4-0.1 0.9-0.2 1.3-0.3 0.8-0.1 1.6-0.2 2.5-0.3q0.4-0.1 0.9-0.2c1.2-0.2 2.3-0.3 3.5-0.4 1.8-0.2 3.4 0.5 4.4 2l5.2 7.3 8.5-5.9c2.1-1.6 5.1-1 6.7 0.9zm43.1 104.2l-69.6-98.6q-1.5 0.2-3.1 0.5c-0.3 0.1-0.7 0.1-1 0.2-0.7 0.1-1.3 0.2-2 0.3-0.4 0.1-0.8 0.2-1.2 0.2q-0.9 0.2-1.8 0.4c-0.4 0.1-0.8 0.2-1.3 0.3-0.5 0.1-1.1 0.2-1.6 0.4-0.4 0-0.8 0.2-1.3 0.3-0.5 0.1-1 0.3-1.5 0.4q-0.7 0.2-1.4 0.4c-0.5 0.1-0.9 0.3-1.5 0.4-0.4 0.1-0.9 0.3-1.3 0.4-0.5 0.2-1 0.3-1.4 0.5-0.4 0.1-0.9 0.3-1.3 0.4q-0.7 0.3-1.4 0.5c-0.5 0.2-0.9 0.4-1.3 0.5-0.5 0.2-0.9 0.4-1.4 0.6-0.4 0.1-0.8 0.3-1.2 0.5q-0.7 0.3-1.4 0.6-0.6 0.2-1.2 0.6-0.7 0.3-1.3 0.6c-0.4 0.2-0.8 0.4-1.3 0.6-0.4 0.2-0.8 0.4-1.2 0.6q-0.6 0.3-1.2 0.7c-0.4 0.2-0.8 0.4-1.2 0.7q-0.6 0.3-1.2 0.7c-0.4 0.2-0.8 0.5-1.2 0.7q-0.6 0.3-1.2 0.7c-0.3 0.3-0.7 0.5-1.1 0.8q-0.6 0.3-1.2 0.8c-0.3 0.2-0.7 0.5-1.1 0.7q-0.5 0.5-1.1 0.9c-0.3 0.2-0.7 0.5-1 0.8-0.4 0.3-0.8 0.5-1.1 0.8-0.4 0.3-0.7 0.6-1.1 0.9q-0.5 0.5-1.1 0.9c-0.3 0.3-0.6 0.6-1 0.9-0.4 0.3-0.7 0.6-1 0.9-0.4 0.3-0.7 0.7-1 0.9-0.4 0.4-0.7 0.7-1.1 1-0.3 0.3-0.6 0.7-0.9 1q-0.6 0.5-1.1 1c-0.3 0.3-0.6 0.7-0.9 1q-0.5 0.5-1 1.1c-0.3 0.3-0.6 0.6-0.9 1q-0.5 0.5-1 1.1c-0.3 0.3-0.6 0.7-0.9 1.1q-0.5 0.6-0.9 1.1c-0.3 0.4-0.6 0.8-0.9 1.1-0.3 0.5-0.6 0.8-0.9 1.2-0.3 0.5-0.5 0.8-0.8 1.2q-0.5 0.6-0.9 1.2c-0.3 0.4-0.5 0.8-0.8 1.2q-0.4 0.7-0.8 1.3c-0.3 0.4-0.5 0.8-0.8 1.2-0.3 0.5-0.6 0.9-0.8 1.3q-0.4 0.6-0.8 1.3-0.4 0.6-0.8 1.3c-0.3 0.4-0.5 0.9-0.8 1.4-0.2 0.4-0.4 0.8-0.7 1.3-0.3 0.4-0.5 0.9-0.8 1.4-0.2 0.4-0.4 0.9-0.7 1.3 0 0 0 0.1 0 0.2l78.6 111.3c0.1-0.1 0.2-0.3 0.3-0.4 0.3-0.6 0.7-1.1 1-1.6 0.3-0.4 0.6-0.8 0.8-1.2 0.2-0.3 0.4-0.5 0.6-0.8 0.3-0.6 0.7-1.1 1.1-1.6q3.6-5.6 7.4-11c13.5-19.7 28.5-38.2 51-46.4zm-76.6 70q1.4-0.4 3-0.8c0.3-0.1 0.6-0.2 0.9-0.2q1.1-0.3 2.2-0.6c0.1 0 0.3-0.1 0.4-0.1l-78.6-111.4c0 0-0.1 0-0.2 0-0.5 0.1-1 0.2-1.5 0.2-0.5 0.1-1 0.2-1.6 0.3-0.5 0.1-0.9 0.2-1.4 0.2-0.5 0.1-1.1 0.2-1.6 0.3-0.5 0.1-1 0.2-1.5 0.3q-0.7 0.2-1.5 0.3c-0.4 0.1-0.9 0.2-1.4 0.3-0.5 0.2-1 0.3-1.5 0.4q-0.6 0.2-1.4 0.4-0.7 0.2-1.4 0.4c-0.4 0.1-0.9 0.2-1.4 0.4-0.4 0.1-0.9 0.3-1.4 0.4-0.4 0.1-0.9 0.3-1.3 0.4-0.5 0.2-1 0.3-1.4 0.5q-0.7 0.2-1.4 0.5-0.7 0.2-1.3 0.5c-0.5 0.1-0.9 0.3-1.4 0.5q-0.6 0.2-1.3 0.5c-0.4 0.2-0.9 0.4-1.3 0.6q-0.7 0.2-1.3 0.5-0.7 0.3-1.3 0.6-0.6 0.4-1.2 0.7c-0.5 0.2-0.9 0.4-1.3 0.6-0.4 0.2-0.8 0.4-1.2 0.7q-0.6 0.2-1.3 0.6-0.6 0.3-1.2 0.7-0.5 0.3-1.2 0.7c-0.4 0.2-0.7 0.5-1.1 0.7-0.5 0.3-0.8 0.5-1.2 0.7-0.4 0.3-0.8 0.5-1.2 0.8-0.4 0.2-0.7 0.5-1.1 0.8q-0.6 0.4-1.1 0.8c-0.4 0.3-0.7 0.5-1.1 0.8-0.4 0.2-0.8 0.5-1.1 0.8-0.4 0.3-0.8 0.6-1.1 0.9q-0.6 0.4-1.1 0.8c-0.4 0.4-0.7 0.6-1 0.9q-0.6 0.5-1.1 0.9c-0.4 0.3-0.7 0.7-1 1-0.4 0.3-0.7 0.6-1.1 1-0.3 0.3-0.6 0.6-0.9 0.9-0.4 0.3-0.7 0.7-1.1 1-0.3 0.4-0.6 0.7-0.9 1-0.3 0.3-0.7 0.7-1 1.1-0.3 0.3-0.6 0.7-0.9 1-0.3 0.3-0.7 0.7-1 1.1-0.2 0.3-0.6 0.7-0.9 1-0.3 0.4-0.6 0.8-0.9 1.2q-0.4 0.6-0.8 1.1c-0.4 0.4-0.7 0.8-1 1.2q-0.4 0.5-0.8 1.1-0.5 0.6-1 1.3-0.4 0.5-0.8 1c-0.2 0.5-0.6 0.9-0.9 1.4-0.2 0.4-0.4 0.7-0.7 1.1-0.3 0.5-0.6 0.9-0.9 1.4-0.3 0.4-0.5 0.8-0.7 1.1-0.3 0.5-0.6 1-0.9 1.6q-0.3 0.5-0.7 1c-0.3 0.6-0.6 1.1-0.9 1.7q-0.3 0.6-0.6 1.1c-0.4 0.7-0.7 1.4-1.1 2.2q-0.2 0.3-0.3 0.5l69.6 98.6c4.2-5.1 9-9.4 14.2-13q2.4-1.7 4.9-3.3c16.2-9.8 35.6-14.7 54.6-19.7zm-41.4 23.3c-11.4 5.4-21.2 12.6-28.6 23.4-0.9 1.3-2.3 2-3.9 2q-0.5 0-1.1-0.1c-0.9-0.2-1.8-0.7-2.4-1.4-0.2-0.2-0.3-0.3-0.4-0.5l-64.3-91-4.5 3.2 72.8 103.2 8.4-12.2c7-10.2 15.1-19 24-26.6zm142.7-84.8l-72.8-103.1-4.6 3.2 64.3 91c0.9 1.3 1.1 2.9 0.5 4.4-0.5 1.5-1.7 2.6-3.2 3-12.5 3.4-22.6 10.2-31.5 19.1 10-5.9 21-10.5 32.9-13.7l14.3-3.9zm-1715.7-77.9l78.7 120.1c0 0-27.7-3.7-49.6 22.7-15.6 18.8-28.1 34.3-34.1 41.7-0.8 1.1-1.6 2.3-2.5 3.4 0 0-0.1 0.1-0.1 0.2 0 0-0.1 0-0.1 0.1q-0.2 0.2-0.4 0.4 0 0-0.1 0-0.2 0.3-0.5 0.4-0.3 0.2-0.6 0.3 0 0 0 0.1c-0.2 0.1-0.4 0.1-0.6 0.2 0 0-0.1 0-0.1 0-0.1 0.1-0.1 0.1-0.2 0.1q-2.1 0.5-4.2 0.9c-9.1 2.5-28.3 7.8-51.8 14.6-32.9 9.5-40.6 36.4-40.6 36.4l-78.7-120.1 7.9-5.1-4.5-6.8c-0.9-1.4-1-3.3-0.2-4.8 16.6-31.5 51.6-33.7 85.4-35.8 3-0.2 6.2-0.3 9.2-0.6 1.4-2.7 2.9-5.5 4.2-8.2 15.5-30.1 31.5-61.3 67-64 1.7-0.1 3.3 0.7 4.3 2.2l4.4 6.7zm-106.4 207.8c2.9-3 6.1-5.6 9.5-7.8 15.6-10.2 36-12.7 55.9-15.1 7.2-0.8 14.8-1.8 21.9-3.1l-68-103.8q-4.6 0.3-9.2 0.6c-31.6 1.9-61.5 3.8-76.2 28.3zm87.8-201.8c-28.3 3.7-42 30.4-56.4 58.6q-2 4.1-4.2 8.1l68 103.9c4.1-6.1 7.9-12.6 11.6-18.9 12.3-21 25-42.6 47.1-50.7zm1241.6 95.9l78.7 120.1c0 0-27.7-3.7-49.6 22.7-15.6 18.8-28.2 34.3-34.1 41.7-0.8 1.1-1.6 2.3-2.5 3.4 0 0.1-0.1 0.1-0.1 0.2 0 0-0.1 0-0.1 0.1q-0.2 0.2-0.4 0.4 0 0-0.1 0-0.2 0.3-0.5 0.4-0.3 0.2-0.6 0.3 0 0 0 0.1c-0.2 0.1-0.4 0.1-0.6 0.2 0 0-0.1 0-0.1 0-0.1 0.1-0.2 0.1-0.2 0.1q-2.1 0.5-4.2 0.9c-9.1 2.5-28.3 7.8-51.8 14.6-32.9 9.6-40.6 36.4-40.6 36.4l-78.7-120.1 7.8-5.1-4.4-6.8c-0.9-1.4-1-3.2-0.2-4.8 16.6-31.5 51.6-33.7 85.4-35.8 3-0.2 6.2-0.3 9.2-0.6 1.4-2.7 2.9-5.5 4.2-8.1 15.5-30.2 31.5-61.4 67-64 1.7-0.2 3.3 0.6 4.3 2.1l4.4 6.7zm-106.4 207.8c2.9-3 6.1-5.5 9.4-7.7 15.7-10.3 36.1-12.8 55.9-15.2 7.3-0.8 14.8-1.8 22-3l-68-103.9q-4.6 0.3-9.2 0.6c-31.6 1.9-61.5 3.8-76.2 28.3zm87.8-201.8c-28.3 3.7-42 30.4-56.4 58.6q-2.1 4.1-4.2 8.1l68 103.9c4.1-6.1 7.9-12.6 11.6-18.9 12.3-20.9 25-42.6 47.1-50.7zm1251.6-132.1l78.7 120.1c0 0-27.7-3.6-49.6 22.7-15.6 18.8-28.2 34.3-34.1 41.7-0.9 1.2-1.7 2.3-2.5 3.4 0 0.1-0.1 0.2-0.1 0.2-0.1 0-0.1 0.1-0.1 0.1q-0.2 0.2-0.4 0.4 0 0-0.1 0.1-0.2 0.2-0.5 0.3-0.3 0.2-0.6 0.4 0 0 0 0c-0.2 0.1-0.4 0.1-0.6 0.2 0 0-0.1 0-0.1 0.1-0.1 0-0.2 0-0.2 0q-2.1 0.5-4.2 0.9c-9.1 2.5-28.3 7.8-51.8 14.6-32.9 9.6-40.6 36.4-40.6 36.4l-78.7-120.1 7.8-5.1-4.4-6.8c-0.9-1.4-1-3.2-0.2-4.8 16.6-31.5 51.6-33.7 85.4-35.7 3-0.2 6.2-0.4 9.2-0.6 1.4-2.7 2.8-5.5 4.2-8.2 15.5-30.2 31.5-61.4 67-64 1.7-0.2 3.3 0.6 4.3 2.1l4.4 6.7zm-106.4 207.8c2.9-3 6.1-5.5 9.4-7.7 15.7-10.3 36.1-12.8 55.9-15.2 7.3-0.8 14.8-1.7 22-3l-68-103.9q-4.6 0.3-9.2 0.6c-31.6 2-61.5 3.8-76.2 28.3zm87.8-201.8c-28.3 3.7-42 30.4-56.4 58.6q-2.1 4.1-4.2 8.2l68 103.8c4.1-6.1 7.9-12.5 11.6-18.9 12.3-20.9 25-42.5 47.1-50.7z"/>
	<path id="Top copy" fill-rule="evenodd" class="s0" d="m1116.3 586.2l-117.3 46.8-103.3-46.3c-15.4-35.9 0-58.3 0-58.3l81.5-37.9 138.4 44.7c1.5 0.5 1.6 2.6 0.1 3.1l-6.4 2.2c-0.1 0.1-0.1 0.2-0.1 0.2-6.6 12.4-6.6 24.5 0 36.9 0.2 0.4 0.4 0.9 0.4 1.3l6.6 2.4c2.4 0.8 2.4 4 0.1 4.9zm-113.9-2.5c0 0.1 0 0.1 0 0.2-0.3 0.6-0.6 1.2-0.9 1.8 0 0 0 0 0 0q-0.4 0.9-0.7 1.8 0 0.1-0.1 0.2c-0.2 0.6-0.4 1.2-0.6 1.8 0 0.1-0.1 0.2-0.1 0.3-0.2 0.6-0.4 1.2-0.5 1.8 0 0-0.1 0.1-0.1 0.2q-0.2 0.8-0.4 1.7c0 0 0 0.1 0 0.1-0.1 0.6-0.2 1.2-0.3 1.8 0 0.1 0 0.2 0 0.3-0.1 0.6-0.2 1.2-0.2 1.7-0.1 0.1-0.1 0.2-0.1 0.3q-0.1 0.9-0.1 1.8c0 0 0 0 0 0.1 0 0.6 0 1.1 0 1.7 0 0.1 0 0.2 0 0.3 0 0.6 0 1.2 0.1 1.7 0 0.1 0 0.2 0 0.3 0.1 0.6 0.1 1.2 0.2 1.7 0 0.1 0 0.2 0 0.3q0.1 0.8 0.3 1.6c0 0.1 0.1 0.1 0.1 0.2 0.1 0.6 0.2 1.2 0.3 1.8 0.1 0.1 0.1 0.2 0.1 0.3 0.2 0.5 0.3 1.1 0.5 1.7 0 0.1 0 0.2 0.1 0.3q0.2 0.9 0.6 1.8 0.3 0.9 0.7 1.8c0 0 0 0.1 0.1 0.1l97.1-37.9c-4.2-10.1-4.9-20.3-2-30.4zm1364.8 215.5l-117.3 46.9-103.3-46.4c-15.4-35.9 0-58.3 0-58.3l81.5-37.9 138.4 44.8c1.5 0.4 1.6 2.5 0.1 3l-6.4 2.3c-0.1 0-0.1 0.1-0.1 0.1-6.6 12.5-6.6 24.6 0 37 0.2 0.4 0.4 0.8 0.5 1.3l6.5 2.3c2.4 0.8 2.5 4.1 0.1 4.9zm-113.8-2.5c-0.1 0.1-0.1 0.2-0.1 0.2-0.3 0.6-0.6 1.2-0.8 1.8-0.1 0-0.1 0-0.1 0q-0.4 0.9-0.7 1.8 0 0.1-0.1 0.3c-0.2 0.6-0.4 1.1-0.6 1.7 0 0.1-0.1 0.2-0.1 0.4-0.2 0.5-0.3 1.1-0.5 1.7 0 0-0.1 0.1-0.1 0.2q-0.1 0.9-0.3 1.7c0 0-0.1 0.1-0.1 0.2-0.1 0.6-0.2 1.1-0.3 1.7 0 0.1 0 0.2 0 0.3-0.1 0.6-0.2 1.2-0.2 1.7-0.1 0.1-0.1 0.3-0.1 0.3q-0.1 0.9-0.1 1.8c0 0.1 0 0.1 0 0.1 0 0.6 0 1.1 0 1.7 0 0.1 0 0.3 0 0.3 0 0.6 0 1.2 0.1 1.7 0 0.2 0 0.2 0 0.4 0.1 0.5 0.1 1.1 0.2 1.7 0 0 0 0.1 0 0.2q0.2 0.8 0.3 1.6c0 0.1 0.1 0.2 0.1 0.2 0.1 0.6 0.2 1.2 0.4 1.8 0 0.1 0 0.2 0 0.3 0.2 0.6 0.3 1.2 0.5 1.7 0 0.1 0.1 0.2 0.1 0.3q0.3 0.9 0.6 1.8 0.3 0.9 0.7 1.8c0.1 0 0.1 0.1 0.1 0.2l97.1-38c-4.2-10.1-4.9-20.2-2-30.3zm-1570.9-180.5l79.5 112.5c0.9 1.3 1.2 2.9 0.6 4.4-0.3 0.9-0.9 1.7-1.7 2.3q-0.7 0.4-1.5 0.7l-20.9 5.6c-14.3 3.8-27.2 9.8-38.4 17.7-11.2 7.9-21.1 18.1-29.5 30.2l-3.2 4.6c0 0-0.1 0.1-0.1 0.1 0 0.1 0 0.1-0.1 0.1 0 0.1 0 0.1-0.1 0.1q0 0.2-0.1 0.2c0 0-0.1 0.1-0.1 0.2-0.1 0-0.1 0-0.1 0q0 0-0.1 0.1 0 0-0.1 0 0 0.1-0.1 0.1c-0.1 0.1-0.2 0.2-0.3 0.3-0.1 0-0.3 0.1-0.4 0.2q0 0 0 0c-0.1 0.1-0.2 0.1-0.2 0.1q0 0-0.1 0.1 0 0-0.1 0c-0.1 0.1-0.2 0.1-0.4 0.2 0 0 0 0-0.1 0 0 0-0.1 0-0.1 0.1-0.1 0-0.1 0-0.2 0l-5.3 1.5c-14.3 3.8-27.2 9.8-38.4 17.7-11.2 7.9-21.1 18-29.5 30.2l-12.3 17.8c-0.9 1.3-2.3 2.1-3.9 2.1-1.5 0-3-0.8-3.9-2l-79.5-112.6c-1.5-2.2-1-5.1 1.2-6.6l8.3-6-5.2-7.3c-1-1.5-1.1-3.3-0.4-4.9 0.6-1 1.1-2.1 1.6-3.1q0.3-0.4 0.5-0.9c0.5-0.7 0.8-1.4 1.2-2.2 0.2-0.3 0.5-0.7 0.7-1.1q0.5-1 1.1-1.9c0.2-0.3 0.5-0.8 0.7-1.2q0.6-0.8 1.1-1.6c0.3-0.5 0.5-0.9 0.8-1.3 0.4-0.5 0.7-1 1-1.6 0.3-0.4 0.6-0.8 0.9-1.2 0.4-0.5 0.7-1 1-1.5 0.3-0.4 0.7-0.8 1-1.2 0.3-0.4 0.6-0.9 1-1.4 0.3-0.4 0.6-0.8 1-1.2q0.5-0.6 1-1.3 0.5-0.6 1-1.2c0.4-0.4 0.8-0.9 1.1-1.3 0.4-0.4 0.7-0.8 1.1-1.2q0.5-0.6 1.1-1.2c0.4-0.4 0.7-0.8 1.1-1.1 0.4-0.4 0.7-0.8 1.1-1.2q0.6-0.5 1.1-1.1c0.4-0.4 0.8-0.7 1.2-1.1 0.3-0.4 0.7-0.7 1.1-1.1 0.4-0.4 0.8-0.7 1.2-1.1q0.6-0.5 1.1-1c0.5-0.3 0.9-0.7 1.3-1 0.4-0.3 0.8-0.6 1.2-1 0.4-0.3 0.8-0.6 1.3-1 0.4-0.3 0.8-0.6 1.2-0.9 0.4-0.4 0.9-0.7 1.3-1q0.7-0.4 1.3-0.9c0.4-0.3 0.9-0.6 1.3-0.8q0.7-0.5 1.3-0.9c0.4-0.3 0.9-0.6 1.3-0.9q0.7-0.4 1.4-0.8c0.4-0.2 0.9-0.5 1.3-0.8 0.5-0.2 1-0.5 1.4-0.7 0.5-0.3 0.9-0.6 1.4-0.8 0.5-0.2 0.9-0.5 1.4-0.7 0.5-0.2 1-0.5 1.4-0.7q0.7-0.4 1.4-0.7c0.5-0.2 1-0.4 1.5-0.7q0.7-0.3 1.4-0.6c0.5-0.3 1-0.5 1.5-0.7q0.8-0.3 1.5-0.5c0.5-0.3 1-0.4 1.6-0.6 0.5-0.2 1-0.4 1.5-0.6 0.5-0.2 1-0.3 1.5-0.5 0.6-0.2 1.1-0.4 1.6-0.5 0.5-0.2 1-0.3 1.6-0.5q0.7-0.3 1.5-0.5c0.6-0.1 1.1-0.3 1.7-0.4q0.7-0.3 1.5-0.5c0.6-0.1 1.1-0.2 1.7-0.4q0.8-0.1 1.6-0.3c0.6-0.1 1.2-0.3 1.8-0.4q0.8-0.1 1.6-0.3 0.9-0.1 1.8-0.3c0.5-0.1 1-0.2 1.6-0.3 0.6 0 1.2-0.2 1.8-0.2 0.6-0.1 1.1-0.2 1.7-0.3 0.1 0 0.3 0 0.5 0 0-0.2 0.1-0.3 0.2-0.5 0.2-0.4 0.5-0.9 0.7-1.4q0.5-0.8 0.9-1.6c0.3-0.5 0.5-1 0.8-1.4q0.4-0.8 0.9-1.6c0.3-0.4 0.6-0.9 0.8-1.3 0.3-0.6 0.6-1.1 0.9-1.6 0.3-0.4 0.6-0.9 0.9-1.3q0.5-0.8 1-1.5c0.3-0.5 0.6-0.9 0.9-1.3 0.3-0.5 0.6-1 1-1.5 0.3-0.4 0.6-0.8 0.9-1.2q0.5-0.8 1-1.4c0.3-0.5 0.6-0.9 1-1.3q0.5-0.6 1.1-1.3c0.3-0.5 0.6-0.8 0.9-1.2 0.4-0.4 0.8-0.9 1.1-1.3 0.4-0.4 0.7-0.8 1-1.2q0.6-0.6 1.2-1.2c0.3-0.4 0.7-0.8 1-1.1 0.4-0.4 0.8-0.8 1.2-1.2 0.4-0.4 0.7-0.7 1.1-1.1q0.6-0.6 1.2-1.1c0.3-0.4 0.7-0.7 1.1-1.1q0.6-0.6 1.2-1.1 0.5-0.5 1.1-1 0.6-0.5 1.3-1.1 0.5-0.4 1.1-0.9c0.4-0.4 0.9-0.7 1.3-1 0.4-0.3 0.8-0.6 1.2-0.9q0.7-0.5 1.3-1 0.6-0.4 1.2-0.9c0.5-0.3 1-0.6 1.4-0.9 0.4-0.3 0.8-0.5 1.3-0.8 0.4-0.3 0.9-0.6 1.4-0.9q0.5-0.4 1.2-0.8 0.7-0.4 1.4-0.8 0.7-0.4 1.3-0.8c0.5-0.2 1-0.5 1.5-0.8 0.4-0.2 0.9-0.4 1.3-0.7q0.8-0.3 1.5-0.7c0.5-0.2 0.9-0.4 1.4-0.6q0.7-0.4 1.5-0.8c0.5-0.2 0.9-0.3 1.4-0.6q0.8-0.3 1.6-0.6c0.5-0.2 0.9-0.4 1.4-0.6 0.5-0.2 1.1-0.4 1.6-0.6 0.5-0.2 0.9-0.4 1.4-0.5q0.9-0.3 1.7-0.6c0.4-0.2 0.9-0.4 1.4-0.5 0.6-0.2 1.2-0.3 1.7-0.5 0.5-0.2 1-0.3 1.5-0.5 0.6-0.1 1.1-0.3 1.7-0.5q0.8-0.2 1.5-0.3 0.9-0.3 1.8-0.5c0.5-0.2 1-0.2 1.5-0.4 0.6-0.1 1.3-0.2 1.9-0.3q0.7-0.2 1.4-0.4c0.7-0.1 1.4-0.2 2.1-0.4 0.4 0 0.9-0.1 1.3-0.2 0.8-0.1 1.7-0.2 2.5-0.3q0.4-0.1 0.9-0.2c1.2-0.2 2.3-0.3 3.6-0.4 1.7-0.2 3.4 0.5 4.4 1.9l5.2 7.4 8.4-6c2.2-1.5 5.1-0.9 6.7 1zm43.1 104.1l-69.6-98.5q-1.5 0.2-3.1 0.5c-0.3 0-0.6 0.1-1 0.1-0.7 0.2-1.3 0.3-2 0.4-0.4 0.1-0.8 0.1-1.2 0.2q-0.9 0.2-1.8 0.4c-0.4 0.1-0.8 0.2-1.2 0.2-0.6 0.2-1.1 0.3-1.7 0.4-0.4 0.1-0.8 0.3-1.2 0.4-0.6 0.1-1.1 0.2-1.6 0.4q-0.7 0.1-1.3 0.3c-0.5 0.2-1 0.3-1.5 0.5-0.5 0.1-0.9 0.3-1.3 0.4-0.5 0.1-1 0.3-1.5 0.4-0.4 0.2-0.9 0.4-1.3 0.5q-0.7 0.3-1.4 0.5c-0.4 0.2-0.8 0.4-1.3 0.5-0.4 0.2-0.9 0.4-1.3 0.5-0.5 0.2-0.9 0.4-1.3 0.6q-0.7 0.2-1.3 0.6-0.6 0.2-1.3 0.5-0.6 0.3-1.3 0.6c-0.4 0.2-0.8 0.5-1.2 0.7-0.4 0.2-0.8 0.4-1.2 0.6q-0.7 0.3-1.3 0.7c-0.4 0.2-0.8 0.4-1.2 0.7q-0.6 0.3-1.2 0.7c-0.4 0.2-0.7 0.4-1.1 0.7q-0.6 0.3-1.2 0.7c-0.4 0.3-0.8 0.5-1.2 0.8q-0.6 0.3-1.1 0.7c-0.4 0.3-0.8 0.5-1.1 0.8q-0.6 0.5-1.2 0.9c-0.3 0.2-0.7 0.5-1 0.7-0.4 0.4-0.7 0.6-1.1 0.9-0.3 0.3-0.7 0.6-1 0.9q-0.6 0.4-1.1 0.9c-0.3 0.3-0.7 0.6-1 0.8-0.4 0.4-0.7 0.7-1.1 1-0.3 0.3-0.7 0.6-1 0.9-0.3 0.4-0.7 0.7-1 1-0.4 0.3-0.7 0.6-1 1q-0.5 0.5-1 1c-0.3 0.3-0.7 0.6-0.9 1q-0.6 0.5-1.1 1c-0.3 0.3-0.6 0.7-0.9 1q-0.5 0.6-0.9 1.1c-0.3 0.4-0.6 0.8-0.9 1.1q-0.5 0.6-1 1.2c-0.3 0.4-0.5 0.7-0.8 1.1-0.4 0.4-0.7 0.8-1 1.2-0.2 0.4-0.5 0.8-0.8 1.2q-0.4 0.6-0.8 1.2c-0.3 0.4-0.6 0.8-0.9 1.2q-0.4 0.7-0.8 1.3c-0.2 0.3-0.5 0.8-0.8 1.2-0.2 0.4-0.5 0.8-0.8 1.3q-0.4 0.6-0.8 1.3-0.4 0.6-0.8 1.3c-0.2 0.4-0.5 0.9-0.7 1.3-0.3 0.5-0.5 0.9-0.8 1.3-0.2 0.5-0.5 1-0.7 1.5-0.3 0.4-0.5 0.9-0.7 1.3-0.1 0-0.1 0.1-0.1 0.1l78.6 111.4c0.1-0.2 0.2-0.3 0.3-0.5 0.4-0.5 0.7-1 1.1-1.5 0.2-0.4 0.5-0.8 0.7-1.2 0.2-0.3 0.4-0.6 0.6-0.9 0.4-0.5 0.8-1.1 1.1-1.6q3.7-5.5 7.4-11c13.6-19.6 28.6-38.1 51-46.4zm-76.6 70q1.5-0.4 3-0.7c0.3-0.1 0.7-0.2 1-0.3q1-0.2 2.1-0.5c0.2-0.1 0.3-0.1 0.5-0.1l-78.7-111.4c0 0-0.1 0-0.2 0-0.5 0.1-1 0.1-1.4 0.2-0.5 0.1-1.1 0.2-1.6 0.3-0.5 0.1-1 0.1-1.5 0.2-0.5 0.1-1.1 0.2-1.6 0.3-0.5 0.1-0.9 0.2-1.4 0.3q-0.8 0.1-1.5 0.3c-0.5 0.1-1 0.2-1.5 0.3-0.4 0.2-0.9 0.2-1.4 0.4q-0.7 0.1-1.4 0.3-0.7 0.2-1.5 0.4c-0.4 0.1-0.9 0.3-1.3 0.4-0.5 0.2-1 0.3-1.4 0.5-0.5 0.1-0.9 0.2-1.4 0.4-0.5 0.2-0.9 0.3-1.4 0.5q-0.7 0.2-1.4 0.5-0.6 0.2-1.3 0.5c-0.5 0.1-0.9 0.3-1.4 0.5q-0.6 0.2-1.3 0.5c-0.4 0.2-0.8 0.4-1.3 0.6q-0.6 0.2-1.3 0.5-0.6 0.3-1.3 0.6-0.5 0.3-1.2 0.6c-0.4 0.2-0.8 0.5-1.3 0.7-0.4 0.2-0.8 0.4-1.2 0.6q-0.6 0.3-1.2 0.7-0.6 0.3-1.2 0.7-0.6 0.3-1.2 0.7c-0.4 0.2-0.8 0.5-1.2 0.7-0.4 0.2-0.8 0.4-1.2 0.7-0.3 0.3-0.8 0.5-1.1 0.8-0.4 0.2-0.8 0.5-1.2 0.7q-0.5 0.4-1.1 0.8c-0.4 0.3-0.7 0.6-1.1 0.9-0.4 0.2-0.7 0.5-1.1 0.8-0.4 0.3-0.7 0.5-1.1 0.8q-0.5 0.5-1.1 0.9c-0.3 0.3-0.6 0.6-1 0.9q-0.5 0.5-1.1 0.9c-0.3 0.3-0.6 0.6-1 0.9-0.4 0.4-0.7 0.7-1 1-0.3 0.4-0.7 0.7-1 1-0.3 0.3-0.7 0.7-1 1-0.3 0.3-0.7 0.7-0.9 1-0.4 0.3-0.7 0.7-1.1 1.1-0.2 0.3-0.6 0.6-0.9 1-0.3 0.3-0.6 0.7-0.9 1.1-0.3 0.3-0.6 0.7-0.9 1-0.4 0.4-0.6 0.8-1 1.2q-0.4 0.5-0.8 1.1c-0.3 0.4-0.6 0.8-0.9 1.2q-0.5 0.5-0.9 1-0.4 0.7-0.9 1.3-0.4 0.5-0.8 1.1c-0.3 0.5-0.6 0.9-0.9 1.4-0.3 0.4-0.5 0.7-0.8 1.1-0.3 0.4-0.6 0.9-0.9 1.4-0.2 0.4-0.4 0.7-0.7 1.1-0.3 0.5-0.6 1-0.9 1.5q-0.3 0.6-0.6 1.1c-0.3 0.6-0.6 1.1-1 1.7q-0.3 0.5-0.5 1c-0.4 0.8-0.8 1.5-1.2 2.3q-0.2 0.2-0.3 0.5l69.6 98.5c4.2-5 9-9.3 14.2-13q2.5-1.7 5-3.2c16.1-9.9 35.6-14.8 54.5-19.8zm-41.4 23.4c-11.3 5.4-21.2 12.6-28.6 23.3-0.9 1.3-2.3 2.1-3.8 2.1q-0.6 0-1.2-0.1c-0.9-0.3-1.7-0.8-2.4-1.4-0.1-0.2-0.2-0.3-0.4-0.5l-64.2-91-4.6 3.2 72.8 103.1 8.5-12.1c7-10.2 15-19 23.9-26.6zm142.7-84.8l-72.8-103.1-4.6 3.2 64.3 91c0.9 1.3 1.1 2.9 0.6 4.4-0.5 1.4-1.8 2.6-3.3 2.9-12.5 3.5-22.6 10.3-31.5 19.2 10-5.9 21.1-10.5 33-13.7l14.3-3.9zm1141.2-262.7l79.5 112.6c0.9 1.2 1.1 2.9 0.6 4.3-0.3 0.9-0.9 1.7-1.7 2.3q-0.7 0.5-1.6 0.7l-20.9 5.6c-14.2 3.9-27.1 9.8-38.3 17.7-11.3 7.9-21.2 18.1-29.6 30.3l-3.1 4.5c0 0-0.1 0.1-0.1 0.2-0.1 0-0.1 0-0.1 0.1 0 0-0.1 0-0.1 0.1q0 0.1-0.1 0.1c-0.1 0.1-0.1 0.1-0.2 0.2 0 0 0 0-0.1 0q0 0 0 0.1-0.1 0-0.1 0.1-0.1 0-0.1 0c-0.1 0.1-0.3 0.2-0.4 0.3-0.1 0-0.2 0.1-0.3 0.2q-0.1 0.1-0.1 0c0 0.1-0.1 0.1-0.2 0.1q0 0 0 0.1-0.1 0-0.1 0.1c-0.2 0-0.3 0.1-0.4 0.1 0 0-0.1 0-0.1 0-0.1 0.1-0.1 0.1-0.1 0.1-0.1 0-0.2 0-0.2 0l-5.4 1.5c-14.2 3.8-27.2 9.8-38.3 17.7-11.2 7.9-21.1 18.1-29.5 30.2l-12.3 17.8c-0.9 1.3-2.4 2.1-3.9 2.1-1.6 0-3-0.7-3.9-2l-79.5-112.6c-1.5-2.1-1-5.1 1.1-6.6l8.4-5.9-5.2-7.4c-1-1.4-1.2-3.3-0.4-4.8 0.6-1.1 1.1-2.1 1.6-3.2q0.3-0.4 0.5-0.8c0.4-0.8 0.8-1.5 1.2-2.2 0.2-0.4 0.4-0.8 0.6-1.2q0.6-0.9 1.1-1.8c0.3-0.4 0.6-0.8 0.8-1.2q0.5-0.9 1-1.7c0.3-0.4 0.6-0.9 0.9-1.3 0.3-0.5 0.6-1 1-1.5 0.3-0.4 0.6-0.9 0.9-1.3 0.3-0.4 0.7-1 1-1.4 0.3-0.5 0.6-0.8 0.9-1.3 0.4-0.4 0.7-0.9 1.1-1.4 0.3-0.4 0.6-0.8 0.9-1.2q0.6-0.6 1.1-1.3 0.5-0.6 1-1.2c0.4-0.4 0.7-0.8 1.1-1.3 0.3-0.4 0.7-0.7 1.1-1.1q0.5-0.6 1.1-1.3c0.3-0.3 0.7-0.7 1-1.1 0.4-0.4 0.8-0.8 1.2-1.2q0.5-0.5 1.1-1.1c0.4-0.3 0.7-0.7 1.1-1.1 0.4-0.4 0.8-0.7 1.2-1 0.4-0.4 0.7-0.8 1.2-1.1q0.5-0.6 1.1-1.1c0.4-0.3 0.8-0.6 1.3-1 0.3-0.3 0.8-0.6 1.2-0.9 0.4-0.4 0.8-0.7 1.2-1 0.5-0.4 0.9-0.7 1.3-1 0.4-0.3 0.8-0.6 1.3-0.9q0.6-0.5 1.3-1c0.4-0.2 0.8-0.5 1.3-0.8q0.6-0.5 1.3-0.9c0.4-0.3 0.9-0.6 1.3-0.8q0.7-0.5 1.3-0.8c0.5-0.3 1-0.6 1.4-0.8 0.5-0.3 0.9-0.5 1.4-0.8 0.4-0.3 0.9-0.5 1.4-0.8 0.5-0.2 0.9-0.5 1.4-0.7 0.4-0.2 0.9-0.5 1.4-0.7q0.7-0.3 1.4-0.7c0.5-0.2 1-0.4 1.5-0.7q0.7-0.3 1.4-0.6c0.5-0.2 1-0.4 1.5-0.6q0.7-0.3 1.5-0.6c0.5-0.2 1-0.4 1.5-0.6 0.5-0.2 1-0.3 1.5-0.5 0.6-0.2 1.1-0.4 1.6-0.6 0.5-0.1 1-0.3 1.5-0.5 0.6-0.2 1.1-0.3 1.6-0.5q0.8-0.2 1.6-0.5c0.6-0.1 1.1-0.3 1.6-0.4q0.8-0.2 1.6-0.4c0.6-0.2 1.1-0.3 1.7-0.4q0.8-0.2 1.6-0.4c0.6-0.1 1.1-0.2 1.7-0.3q0.8-0.2 1.6-0.3 0.9-0.2 1.8-0.4c0.6-0.1 1.1-0.2 1.7-0.2 0.6-0.1 1.2-0.2 1.8-0.3 0.6-0.1 1.1-0.2 1.6-0.2 0.2 0 0.4-0.1 0.5-0.1 0.1-0.2 0.2-0.3 0.2-0.4 0.3-0.5 0.6-1 0.8-1.4q0.4-0.9 0.9-1.7c0.2-0.4 0.5-0.9 0.8-1.4q0.4-0.8 0.9-1.6c0.2-0.4 0.5-0.9 0.8-1.3 0.3-0.5 0.6-1 0.9-1.6 0.3-0.4 0.6-0.8 0.9-1.3q0.4-0.8 0.9-1.5c0.4-0.4 0.6-0.9 0.9-1.3 0.4-0.5 0.7-1 1-1.4 0.4-0.5 0.6-0.9 1-1.3q0.5-0.7 1-1.4c0.3-0.5 0.6-0.9 0.9-1.3q0.6-0.6 1.1-1.3c0.3-0.4 0.6-0.8 1-1.2 0.4-0.4 0.7-0.9 1.1-1.3 0.3-0.4 0.7-0.7 1-1.1q0.6-0.7 1.1-1.3c0.4-0.4 0.7-0.7 1.1-1.1 0.4-0.4 0.8-0.8 1.2-1.2 0.3-0.4 0.7-0.7 1-1.1q0.6-0.5 1.2-1.1c0.4-0.4 0.8-0.7 1.1-1.1q0.6-0.5 1.3-1.1 0.5-0.5 1.1-1 0.6-0.5 1.2-1 0.6-0.5 1.2-1c0.4-0.3 0.9-0.7 1.3-1 0.4-0.3 0.8-0.6 1.2-0.9q0.6-0.5 1.3-1 0.6-0.4 1.2-0.8c0.5-0.4 0.9-0.7 1.4-1 0.4-0.2 0.8-0.5 1.2-0.8 0.5-0.3 0.9-0.6 1.4-0.9q0.6-0.4 1.3-0.8 0.7-0.4 1.4-0.8 0.6-0.4 1.3-0.8c0.5-0.2 1-0.5 1.5-0.7 0.4-0.2 0.8-0.5 1.3-0.7q0.8-0.4 1.5-0.8c0.5-0.2 0.9-0.4 1.4-0.6q0.7-0.4 1.5-0.7c0.4-0.3 0.9-0.4 1.4-0.6q0.8-0.4 1.5-0.7c0.5-0.2 1-0.4 1.4-0.6 0.6-0.2 1.1-0.4 1.6-0.6 0.5-0.2 1-0.3 1.5-0.5q0.8-0.3 1.7-0.6c0.4-0.1 0.9-0.3 1.4-0.5 0.5-0.1 1.1-0.3 1.7-0.5 0.4-0.2 0.9-0.3 1.4-0.4 0.6-0.2 1.2-0.4 1.8-0.5q0.7-0.2 1.5-0.4 0.9-0.3 1.8-0.5c0.5-0.1 0.9-0.2 1.4-0.3 0.7-0.2 1.3-0.3 2-0.4q0.7-0.2 1.4-0.3c0.7-0.2 1.4-0.3 2.1-0.4 0.4-0.1 0.9-0.2 1.3-0.3 0.8-0.1 1.6-0.2 2.5-0.3q0.4-0.1 0.9-0.2c1.2-0.2 2.3-0.3 3.5-0.4 1.8-0.2 3.4 0.5 4.4 2l5.2 7.3 8.5-5.9c2.1-1.6 5.1-1 6.7 0.9zm43.1 104.2l-69.6-98.6q-1.5 0.2-3.1 0.5c-0.3 0.1-0.7 0.1-1 0.2-0.7 0.1-1.3 0.2-2 0.3-0.4 0.1-0.8 0.2-1.2 0.2q-0.9 0.2-1.8 0.4c-0.4 0.1-0.8 0.2-1.3 0.3-0.5 0.1-1.1 0.2-1.6 0.4-0.4 0-0.8 0.2-1.3 0.3-0.5 0.1-1 0.3-1.5 0.4q-0.7 0.2-1.4 0.4c-0.5 0.1-0.9 0.3-1.5 0.4-0.4 0.1-0.9 0.3-1.3 0.4-0.5 0.2-1 0.3-1.4 0.5-0.4 0.1-0.9 0.3-1.3 0.4q-0.7 0.3-1.4 0.5c-0.5 0.2-0.9 0.4-1.3 0.5-0.5 0.2-0.9 0.4-1.4 0.6-0.4 0.1-0.8 0.3-1.2 0.5q-0.7 0.3-1.4 0.6-0.6 0.2-1.2 0.6-0.7 0.3-1.3 0.6c-0.4 0.2-0.8 0.4-1.3 0.6-0.4 0.2-0.8 0.4-1.2 0.6q-0.6 0.3-1.2 0.7c-0.4 0.2-0.8 0.4-1.2 0.7q-0.6 0.3-1.2 0.7c-0.4 0.2-0.8 0.5-1.2 0.7q-0.6 0.3-1.2 0.7c-0.3 0.3-0.7 0.5-1.1 0.8q-0.6 0.3-1.2 0.8c-0.3 0.2-0.7 0.5-1.1 0.7q-0.5 0.5-1.1 0.9c-0.3 0.2-0.7 0.5-1 0.8-0.4 0.3-0.8 0.5-1.1 0.8-0.4 0.3-0.7 0.6-1.1 0.9q-0.5 0.5-1.1 0.9c-0.3 0.3-0.6 0.6-1 0.9-0.4 0.3-0.7 0.6-1 0.9-0.4 0.3-0.7 0.7-1 0.9-0.4 0.4-0.7 0.7-1.1 1-0.3 0.3-0.6 0.7-0.9 1q-0.6 0.5-1.1 1c-0.3 0.3-0.6 0.7-0.9 1q-0.5 0.5-1 1.1c-0.3 0.3-0.6 0.6-0.9 1q-0.5 0.5-1 1.1c-0.3 0.3-0.6 0.7-0.9 1.1q-0.5 0.6-0.9 1.1c-0.3 0.4-0.6 0.8-0.9 1.1-0.3 0.5-0.6 0.8-0.9 1.2-0.3 0.5-0.5 0.8-0.8 1.2q-0.5 0.6-0.9 1.2c-0.3 0.4-0.5 0.8-0.8 1.2q-0.4 0.7-0.8 1.3c-0.3 0.4-0.5 0.8-0.8 1.2-0.3 0.5-0.6 0.9-0.8 1.3q-0.4 0.6-0.8 1.3-0.4 0.6-0.8 1.3c-0.3 0.4-0.5 0.9-0.8 1.4-0.2 0.4-0.4 0.8-0.7 1.3-0.3 0.4-0.5 0.9-0.8 1.4-0.2 0.4-0.4 0.9-0.7 1.3 0 0 0 0.1 0 0.2l78.6 111.3c0.1-0.1 0.2-0.3 0.3-0.4 0.3-0.6 0.7-1.1 1-1.6 0.3-0.4 0.6-0.8 0.8-1.2 0.2-0.3 0.4-0.5 0.6-0.8 0.3-0.6 0.7-1.1 1.1-1.6q3.6-5.6 7.4-11c13.5-19.7 28.5-38.2 51-46.4zm-76.6 70q1.4-0.4 3-0.8c0.3-0.1 0.6-0.2 0.9-0.2q1.1-0.3 2.2-0.6c0.1 0 0.3-0.1 0.4-0.1l-78.6-111.4c0 0-0.1 0-0.2 0-0.5 0.1-1 0.2-1.5 0.2-0.5 0.1-1 0.2-1.6 0.3-0.5 0.1-0.9 0.2-1.4 0.2-0.5 0.1-1.1 0.2-1.6 0.3-0.5 0.1-1 0.2-1.5 0.3q-0.7 0.2-1.5 0.3c-0.4 0.1-0.9 0.2-1.4 0.3-0.5 0.2-1 0.3-1.5 0.4q-0.6 0.2-1.4 0.4-0.7 0.2-1.4 0.4c-0.4 0.1-0.9 0.2-1.4 0.4-0.4 0.1-0.9 0.3-1.4 0.4-0.4 0.1-0.9 0.3-1.3 0.4-0.5 0.2-1 0.3-1.4 0.5q-0.7 0.2-1.4 0.5-0.7 0.2-1.3 0.5c-0.5 0.1-0.9 0.3-1.4 0.5q-0.6 0.2-1.3 0.5c-0.4 0.2-0.9 0.4-1.3 0.6q-0.7 0.2-1.3 0.5-0.7 0.3-1.3 0.6-0.6 0.4-1.2 0.7c-0.5 0.2-0.9 0.4-1.3 0.6-0.4 0.2-0.8 0.4-1.2 0.7q-0.6 0.2-1.3 0.6-0.6 0.3-1.2 0.7-0.5 0.3-1.2 0.7c-0.4 0.2-0.7 0.5-1.1 0.7-0.5 0.3-0.8 0.5-1.2 0.7-0.4 0.3-0.8 0.5-1.2 0.8-0.4 0.2-0.7 0.5-1.1 0.8q-0.6 0.4-1.1 0.8c-0.4 0.3-0.7 0.5-1.1 0.8-0.4 0.2-0.8 0.5-1.1 0.8-0.4 0.3-0.8 0.6-1.1 0.9q-0.6 0.4-1.1 0.8c-0.4 0.4-0.7 0.6-1 0.9q-0.6 0.5-1.1 0.9c-0.4 0.3-0.7 0.7-1 1-0.4 0.3-0.7 0.6-1.1 1-0.3 0.3-0.6 0.6-0.9 0.9-0.4 0.3-0.7 0.7-1.1 1-0.3 0.4-0.6 0.7-0.9 1-0.3 0.3-0.7 0.7-1 1.1-0.3 0.3-0.6 0.7-0.9 1-0.3 0.3-0.7 0.7-1 1.1-0.2 0.3-0.6 0.7-0.9 1-0.3 0.4-0.6 0.8-0.9 1.2q-0.4 0.6-0.8 1.1c-0.4 0.4-0.7 0.8-1 1.2q-0.4 0.5-0.8 1.1-0.5 0.6-1 1.3-0.4 0.5-0.8 1c-0.2 0.5-0.6 0.9-0.9 1.4-0.2 0.4-0.4 0.7-0.7 1.1-0.3 0.5-0.6 0.9-0.9 1.4-0.3 0.4-0.5 0.8-0.7 1.1-0.3 0.5-0.6 1-0.9 1.6q-0.3 0.5-0.7 1c-0.3 0.6-0.6 1.1-0.9 1.7q-0.3 0.6-0.6 1.1c-0.4 0.7-0.7 1.4-1.1 2.2q-0.2 0.3-0.3 0.5l69.6 98.6c4.2-5.1 9-9.4 14.2-13q2.4-1.7 4.9-3.3c16.2-9.8 35.6-14.7 54.6-19.7zm-41.4 23.3c-11.4 5.4-21.2 12.6-28.6 23.4-0.9 1.3-2.3 2-3.9 2q-0.5 0-1.1-0.1c-0.9-0.2-1.8-0.7-2.4-1.4-0.2-0.2-0.3-0.3-0.4-0.5l-64.3-91-4.5 3.2 72.8 103.2 8.4-12.2c7-10.2 15.1-19 24-26.6zm142.7-84.8l-72.8-103.1-4.6 3.2 64.3 91c0.9 1.3 1.1 2.9 0.5 4.4-0.5 1.5-1.7 2.6-3.2 3-12.5 3.4-22.6 10.2-31.5 19.1 10-5.9 21-10.5 32.9-13.7l14.3-3.9zm-1715.7-77.9l78.7 120.1c0 0-27.7-3.7-49.6 22.7-15.6 18.8-28.1 34.3-34.1 41.7-0.8 1.1-1.6 2.3-2.5 3.4 0 0-0.1 0.1-0.1 0.2 0 0-0.1 0-0.1 0.1q-0.2 0.2-0.4 0.4 0 0-0.1 0-0.2 0.3-0.5 0.4-0.3 0.2-0.6 0.3 0 0 0 0.1c-0.2 0.1-0.4 0.1-0.6 0.2 0 0-0.1 0-0.1 0-0.1 0.1-0.1 0.1-0.2 0.1q-2.1 0.5-4.2 0.9c-9.1 2.5-28.3 7.8-51.8 14.6-32.9 9.5-40.6 36.4-40.6 36.4l-78.7-120.1 7.9-5.1-4.5-6.8c-0.9-1.4-1-3.3-0.2-4.8 16.6-31.5 51.6-33.7 85.4-35.8 3-0.2 6.2-0.3 9.2-0.6 1.4-2.7 2.9-5.5 4.2-8.2 15.5-30.1 31.5-61.3 67-64 1.7-0.1 3.3 0.7 4.3 2.2l4.4 6.7zm-106.4 207.8c2.9-3 6.1-5.6 9.5-7.8 15.6-10.2 36-12.7 55.9-15.1 7.2-0.8 14.8-1.8 21.9-3.1l-68-103.8q-4.6 0.3-9.2 0.6c-31.6 1.9-61.5 3.8-76.2 28.3zm87.8-201.8c-28.3 3.7-42 30.4-56.4 58.6q-2 4.1-4.2 8.1l68 103.9c4.1-6.1 7.9-12.6 11.6-18.9 12.3-21 25-42.6 47.1-50.7zm1241.6 95.9l78.7 120.1c0 0-27.7-3.7-49.6 22.7-15.6 18.8-28.2 34.3-34.1 41.7-0.8 1.1-1.6 2.3-2.5 3.4 0 0.1-0.1 0.1-0.1 0.2 0 0-0.1 0-0.1 0.1q-0.2 0.2-0.4 0.4 0 0-0.1 0-0.2 0.3-0.5 0.4-0.3 0.2-0.6 0.3 0 0 0 0.1c-0.2 0.1-0.4 0.1-0.6 0.2 0 0-0.1 0-0.1 0-0.1 0.1-0.2 0.1-0.2 0.1q-2.1 0.5-4.2 0.9c-9.1 2.5-28.3 7.8-51.8 14.6-32.9 9.6-40.6 36.4-40.6 36.4l-78.7-120.1 7.8-5.1-4.4-6.8c-0.9-1.4-1-3.2-0.2-4.8 16.6-31.5 51.6-33.7 85.4-35.8 3-0.2 6.2-0.3 9.2-0.6 1.4-2.7 2.9-5.5 4.2-8.1 15.5-30.2 31.5-61.4 67-64 1.7-0.2 3.3 0.6 4.3 2.1l4.4 6.7zm-106.4 207.8c2.9-3 6.1-5.5 9.4-7.7 15.7-10.3 36.1-12.8 55.9-15.2 7.3-0.8 14.8-1.8 22-3l-68-103.9q-4.6 0.3-9.2 0.6c-31.6 1.9-61.5 3.8-76.2 28.3zm87.8-201.8c-28.3 3.7-42 30.4-56.4 58.6q-2.1 4.1-4.2 8.1l68 103.9c4.1-6.1 7.9-12.6 11.6-18.9 12.3-20.9 25-42.6 47.1-50.7zm1251.6-132.1l78.7 120.1c0 0-27.7-3.6-49.6 22.7-15.6 18.8-28.2 34.3-34.1 41.7-0.9 1.2-1.7 2.3-2.5 3.4 0 0.1-0.1 0.2-0.1 0.2-0.1 0-0.1 0.1-0.1 0.1q-0.2 0.2-0.4 0.4 0 0-0.1 0.1-0.2 0.2-0.5 0.3-0.3 0.2-0.6 0.4 0 0 0 0c-0.2 0.1-0.4 0.1-0.6 0.2 0 0-0.1 0-0.1 0.1-0.1 0-0.2 0-0.2 0q-2.1 0.5-4.2 0.9c-9.1 2.5-28.3 7.8-51.8 14.6-32.9 9.6-40.6 36.4-40.6 36.4l-78.7-120.1 7.8-5.1-4.4-6.8c-0.9-1.4-1-3.2-0.2-4.8 16.6-31.5 51.6-33.7 85.4-35.7 3-0.2 6.2-0.4 9.2-0.6 1.4-2.7 2.8-5.5 4.2-8.2 15.5-30.2 31.5-61.4 67-64 1.7-0.2 3.3 0.6 4.3 2.1l4.4 6.7zm-106.4 207.8c2.9-3 6.1-5.5 9.4-7.7 15.7-10.3 36.1-12.8 55.9-15.2 7.3-0.8 14.8-1.7 22-3l-68-103.9q-4.6 0.3-9.2 0.6c-31.6 2-61.5 3.8-76.2 28.3zm87.8-201.8c-28.3 3.7-42 30.4-56.4 58.6q-2.1 4.1-4.2 8.2l68 103.8c4.1-6.1 7.9-12.5 11.6-18.9 12.3-20.9 25-42.5 47.1-50.7z"/>
	<path id="Top copy 2" fill-rule="evenodd" class="s0" d="m1113.3 1057.2l-117.3 46.8-103.3-46.3c-15.4-35.9 0-58.3 0-58.3l81.5-37.9 138.4 44.7c1.5 0.5 1.6 2.6 0.1 3.1l-6.4 2.2c-0.1 0.1-0.1 0.2-0.1 0.2-6.6 12.4-6.6 24.5 0 36.9 0.2 0.4 0.4 0.9 0.4 1.3l6.6 2.4c2.4 0.8 2.4 4 0.1 4.9zm-113.9-2.5c0 0.1 0 0.1 0 0.2-0.3 0.6-0.6 1.2-0.9 1.8 0 0 0 0 0 0q-0.4 0.9-0.7 1.8 0 0.1-0.1 0.2c-0.2 0.6-0.4 1.2-0.6 1.8 0 0.1-0.1 0.2-0.1 0.3-0.2 0.6-0.4 1.2-0.5 1.8 0 0-0.1 0.1-0.1 0.2q-0.2 0.8-0.4 1.7c0 0 0 0.1 0 0.1-0.1 0.6-0.2 1.2-0.3 1.8 0 0.1 0 0.2 0 0.3-0.1 0.6-0.2 1.2-0.2 1.7-0.1 0.1-0.1 0.2-0.1 0.3q-0.1 0.9-0.1 1.8c0 0 0 0 0 0.1 0 0.6 0 1.1 0 1.7 0 0.1 0 0.2 0 0.3 0 0.6 0 1.2 0.1 1.7 0 0.1 0 0.2 0 0.3 0.1 0.6 0.1 1.2 0.2 1.7 0 0.1 0 0.2 0 0.3q0.1 0.8 0.3 1.6c0 0.1 0.1 0.1 0.1 0.2 0.1 0.6 0.2 1.2 0.3 1.8 0.1 0.1 0.1 0.2 0.1 0.3 0.2 0.5 0.3 1.1 0.5 1.7 0 0.1 0 0.2 0.1 0.3q0.2 0.9 0.6 1.8 0.3 0.9 0.7 1.8c0 0 0 0.1 0.1 0.1l97.1-37.9c-4.2-10.1-4.9-20.3-2-30.4zm1364.8 215.5l-117.3 46.9-103.3-46.4c-15.4-35.9 0-58.3 0-58.3l81.5-37.9 138.4 44.8c1.5 0.4 1.6 2.5 0.1 3l-6.4 2.3c-0.1 0-0.1 0.1-0.1 0.1-6.6 12.5-6.6 24.6 0 37 0.2 0.4 0.4 0.8 0.5 1.3l6.5 2.3c2.4 0.8 2.5 4.1 0.1 4.9zm-113.8-2.5c-0.1 0.1-0.1 0.2-0.1 0.2-0.3 0.6-0.6 1.2-0.8 1.8-0.1 0-0.1 0-0.1 0q-0.4 0.9-0.7 1.8 0 0.1-0.1 0.3c-0.2 0.6-0.4 1.1-0.6 1.7 0 0.1-0.1 0.2-0.1 0.4-0.2 0.5-0.3 1.1-0.5 1.7 0 0-0.1 0.1-0.1 0.2q-0.1 0.9-0.3 1.7c0 0-0.1 0.1-0.1 0.2-0.1 0.6-0.2 1.1-0.3 1.7 0 0.1 0 0.2 0 0.3-0.1 0.6-0.2 1.2-0.2 1.7-0.1 0.1-0.1 0.3-0.1 0.3q-0.1 0.9-0.1 1.8c0 0.1 0 0.1 0 0.1 0 0.6 0 1.1 0 1.7 0 0.1 0 0.3 0 0.3 0 0.6 0 1.2 0.1 1.7 0 0.2 0 0.2 0 0.4 0.1 0.5 0.1 1.1 0.2 1.7 0 0 0 0.1 0 0.2q0.2 0.8 0.3 1.6c0 0.1 0.1 0.2 0.1 0.2 0.1 0.6 0.2 1.2 0.4 1.8 0 0.1 0 0.2 0 0.3 0.2 0.6 0.3 1.2 0.5 1.7 0 0.1 0.1 0.2 0.1 0.3q0.3 0.9 0.6 1.8 0.3 0.9 0.7 1.8c0.1 0 0.1 0.1 0.1 0.2l97.1-38c-4.2-10.1-4.9-20.2-2-30.3zm-1570.9-180.5l79.5 112.5c0.9 1.3 1.2 2.9 0.6 4.4-0.3 0.9-0.9 1.7-1.7 2.3q-0.7 0.4-1.5 0.7l-20.9 5.6c-14.3 3.8-27.2 9.8-38.4 17.7-11.2 7.9-21.1 18.1-29.5 30.2l-3.2 4.6c0 0-0.1 0.1-0.1 0.1 0 0.1 0 0.1-0.1 0.1 0 0.1 0 0.1-0.1 0.1q0 0.2-0.1 0.2c0 0-0.1 0.1-0.1 0.2-0.1 0-0.1 0-0.1 0q0 0-0.1 0.1 0 0-0.1 0 0 0.1-0.1 0.1c-0.1 0.1-0.2 0.2-0.3 0.3-0.1 0-0.3 0.1-0.4 0.2q0 0 0 0c-0.1 0.1-0.2 0.1-0.2 0.1q0 0-0.1 0.1 0 0-0.1 0c-0.1 0.1-0.2 0.1-0.4 0.2 0 0 0 0-0.1 0 0 0-0.1 0-0.1 0.1-0.1 0-0.1 0-0.2 0l-5.3 1.5c-14.3 3.8-27.2 9.8-38.4 17.7-11.2 7.9-21.1 18-29.5 30.2l-12.3 17.8c-0.9 1.3-2.3 2.1-3.9 2.1-1.5 0-3-0.8-3.9-2l-79.5-112.6c-1.5-2.2-1-5.1 1.2-6.6l8.3-6-5.2-7.3c-1-1.5-1.1-3.3-0.4-4.9 0.6-1 1.1-2.1 1.6-3.1q0.3-0.4 0.5-0.9c0.5-0.7 0.8-1.4 1.2-2.2 0.2-0.3 0.5-0.7 0.7-1.1q0.5-1 1.1-1.9c0.2-0.3 0.5-0.8 0.7-1.2q0.6-0.8 1.1-1.6c0.3-0.5 0.5-0.9 0.8-1.3 0.4-0.5 0.7-1 1-1.6 0.3-0.4 0.6-0.8 0.9-1.2 0.4-0.5 0.7-1 1-1.5 0.3-0.4 0.7-0.8 1-1.2 0.3-0.4 0.6-0.9 1-1.4 0.3-0.4 0.6-0.8 1-1.2q0.5-0.6 1-1.3 0.5-0.6 1-1.2c0.4-0.4 0.8-0.9 1.1-1.3 0.4-0.4 0.7-0.8 1.1-1.2q0.5-0.6 1.1-1.2c0.4-0.4 0.7-0.8 1.1-1.1 0.4-0.4 0.7-0.8 1.1-1.2q0.6-0.5 1.1-1.1c0.4-0.4 0.8-0.7 1.2-1.1 0.3-0.4 0.7-0.7 1.1-1.1 0.4-0.4 0.8-0.7 1.2-1.1q0.6-0.5 1.1-1c0.5-0.3 0.9-0.7 1.3-1 0.4-0.3 0.8-0.6 1.2-1 0.4-0.3 0.8-0.6 1.3-1 0.4-0.3 0.8-0.6 1.2-0.9 0.4-0.4 0.9-0.7 1.3-1q0.7-0.4 1.3-0.9c0.4-0.3 0.9-0.6 1.3-0.8q0.7-0.5 1.3-0.9c0.4-0.3 0.9-0.6 1.3-0.9q0.7-0.4 1.4-0.8c0.4-0.2 0.9-0.5 1.3-0.8 0.5-0.2 1-0.5 1.4-0.7 0.5-0.3 0.9-0.6 1.4-0.8 0.5-0.2 0.9-0.5 1.4-0.7 0.5-0.2 1-0.5 1.4-0.7q0.7-0.4 1.4-0.7c0.5-0.2 1-0.4 1.5-0.7q0.7-0.3 1.4-0.6c0.5-0.3 1-0.5 1.5-0.7q0.8-0.3 1.5-0.5c0.5-0.3 1-0.4 1.6-0.6 0.5-0.2 1-0.4 1.5-0.6 0.5-0.2 1-0.3 1.5-0.5 0.6-0.2 1.1-0.4 1.6-0.5 0.5-0.2 1-0.3 1.6-0.5q0.7-0.3 1.5-0.5c0.6-0.1 1.1-0.3 1.7-0.4q0.7-0.3 1.5-0.5c0.6-0.1 1.1-0.2 1.7-0.4q0.8-0.1 1.6-0.3c0.6-0.1 1.2-0.3 1.8-0.4q0.8-0.1 1.6-0.3 0.9-0.1 1.8-0.3c0.5-0.1 1-0.2 1.6-0.3 0.6 0 1.2-0.2 1.8-0.2 0.6-0.1 1.1-0.2 1.7-0.3 0.1 0 0.3 0 0.5 0 0-0.2 0.1-0.3 0.2-0.5 0.2-0.4 0.5-0.9 0.7-1.4q0.5-0.8 0.9-1.6c0.3-0.5 0.5-1 0.8-1.4q0.4-0.8 0.9-1.6c0.3-0.4 0.6-0.9 0.8-1.3 0.3-0.6 0.6-1.1 0.9-1.6 0.3-0.4 0.6-0.9 0.9-1.3q0.5-0.8 1-1.5c0.3-0.5 0.6-0.9 0.9-1.3 0.3-0.5 0.6-1 1-1.5 0.3-0.4 0.6-0.8 0.9-1.2q0.5-0.8 1-1.4c0.3-0.5 0.6-0.9 1-1.3q0.5-0.6 1.1-1.3c0.3-0.5 0.6-0.8 0.9-1.2 0.4-0.4 0.8-0.9 1.1-1.3 0.4-0.4 0.7-0.8 1-1.2q0.6-0.6 1.2-1.2c0.3-0.4 0.7-0.8 1-1.1 0.4-0.4 0.8-0.8 1.2-1.2 0.4-0.4 0.7-0.7 1.1-1.1q0.6-0.6 1.2-1.1c0.3-0.4 0.7-0.7 1.1-1.1q0.6-0.6 1.2-1.1 0.5-0.5 1.1-1 0.6-0.5 1.3-1.1 0.5-0.4 1.1-0.9c0.4-0.4 0.9-0.7 1.3-1 0.4-0.3 0.8-0.6 1.2-0.9q0.7-0.5 1.3-1 0.6-0.4 1.2-0.9c0.5-0.3 1-0.6 1.4-0.9 0.4-0.3 0.8-0.5 1.3-0.8 0.4-0.3 0.9-0.6 1.4-0.9q0.5-0.4 1.2-0.8 0.7-0.4 1.4-0.8 0.7-0.4 1.3-0.8c0.5-0.2 1-0.5 1.5-0.8 0.4-0.2 0.9-0.4 1.3-0.7q0.8-0.3 1.5-0.7c0.5-0.2 0.9-0.4 1.4-0.6q0.7-0.4 1.5-0.8c0.5-0.2 0.9-0.3 1.4-0.6q0.8-0.3 1.6-0.6c0.5-0.2 0.9-0.4 1.4-0.6 0.5-0.2 1.1-0.4 1.6-0.6 0.5-0.2 0.9-0.4 1.4-0.5q0.9-0.3 1.7-0.6c0.4-0.2 0.9-0.4 1.4-0.5 0.6-0.2 1.2-0.3 1.7-0.5 0.5-0.2 1-0.3 1.5-0.5 0.6-0.1 1.1-0.3 1.7-0.5q0.8-0.2 1.5-0.3 0.9-0.3 1.8-0.5c0.5-0.2 1-0.2 1.5-0.4 0.6-0.1 1.3-0.2 1.9-0.3q0.7-0.2 1.4-0.4c0.7-0.1 1.4-0.2 2.1-0.4 0.4 0 0.9-0.1 1.3-0.2 0.8-0.1 1.7-0.2 2.5-0.3q0.4-0.1 0.9-0.2c1.2-0.2 2.3-0.3 3.6-0.4 1.7-0.2 3.4 0.5 4.4 1.9l5.2 7.4 8.4-6c2.2-1.5 5.1-0.9 6.7 1zm43.1 104.1l-69.6-98.5q-1.5 0.2-3.1 0.5c-0.3 0-0.6 0.1-1 0.1-0.7 0.2-1.3 0.3-2 0.4-0.4 0.1-0.8 0.1-1.2 0.2q-0.9 0.2-1.8 0.4c-0.4 0.1-0.8 0.2-1.2 0.2-0.6 0.2-1.1 0.3-1.7 0.4-0.4 0.1-0.8 0.3-1.2 0.4-0.6 0.1-1.1 0.2-1.6 0.4q-0.7 0.1-1.3 0.3c-0.5 0.2-1 0.3-1.5 0.5-0.5 0.1-0.9 0.3-1.3 0.4-0.5 0.1-1 0.3-1.5 0.4-0.4 0.2-0.9 0.4-1.3 0.5q-0.7 0.3-1.4 0.5c-0.4 0.2-0.8 0.4-1.3 0.5-0.4 0.2-0.9 0.4-1.3 0.5-0.5 0.2-0.9 0.4-1.3 0.6q-0.7 0.2-1.3 0.6-0.6 0.2-1.3 0.5-0.6 0.3-1.3 0.6c-0.4 0.2-0.8 0.5-1.2 0.7-0.4 0.2-0.8 0.4-1.2 0.6q-0.7 0.3-1.3 0.7c-0.4 0.2-0.8 0.4-1.2 0.7q-0.6 0.3-1.2 0.7c-0.4 0.2-0.7 0.4-1.1 0.7q-0.6 0.3-1.2 0.7c-0.4 0.3-0.8 0.5-1.2 0.8q-0.6 0.3-1.1 0.7c-0.4 0.3-0.8 0.5-1.1 0.8q-0.6 0.5-1.2 0.9c-0.3 0.2-0.7 0.5-1 0.7-0.4 0.4-0.7 0.6-1.1 0.9-0.3 0.3-0.7 0.6-1 0.9q-0.6 0.4-1.1 0.9c-0.3 0.3-0.7 0.6-1 0.8-0.4 0.4-0.7 0.7-1.1 1-0.3 0.3-0.7 0.6-1 0.9-0.3 0.4-0.7 0.7-1 1-0.4 0.3-0.7 0.6-1 1q-0.5 0.5-1 1c-0.3 0.3-0.7 0.6-0.9 1q-0.6 0.5-1.1 1c-0.3 0.3-0.6 0.7-0.9 1q-0.5 0.6-0.9 1.1c-0.3 0.4-0.6 0.8-0.9 1.1q-0.5 0.6-1 1.2c-0.3 0.4-0.5 0.7-0.8 1.1-0.4 0.4-0.7 0.8-1 1.2-0.2 0.4-0.5 0.8-0.8 1.2q-0.4 0.6-0.8 1.2c-0.3 0.4-0.6 0.8-0.9 1.2q-0.4 0.7-0.8 1.3c-0.2 0.3-0.5 0.8-0.8 1.2-0.2 0.4-0.5 0.8-0.8 1.3q-0.4 0.6-0.8 1.3-0.4 0.6-0.8 1.3c-0.2 0.4-0.5 0.9-0.7 1.3-0.3 0.5-0.5 0.9-0.8 1.3-0.2 0.5-0.5 1-0.7 1.5-0.3 0.4-0.5 0.9-0.7 1.3-0.1 0-0.1 0.1-0.1 0.1l78.6 111.4c0.1-0.2 0.2-0.3 0.3-0.5 0.4-0.5 0.7-1 1.1-1.5 0.2-0.4 0.5-0.8 0.7-1.2 0.2-0.3 0.4-0.6 0.6-0.9 0.4-0.5 0.8-1.1 1.1-1.6q3.7-5.5 7.4-11c13.6-19.6 28.6-38.1 51-46.4zm-76.6 70q1.5-0.4 3-0.7c0.3-0.1 0.7-0.2 1-0.3q1-0.2 2.1-0.5c0.2-0.1 0.3-0.1 0.5-0.1l-78.7-111.4c0 0-0.1 0-0.2 0-0.5 0.1-1 0.1-1.4 0.2-0.5 0.1-1.1 0.2-1.6 0.3-0.5 0.1-1 0.1-1.5 0.2-0.5 0.1-1.1 0.2-1.6 0.3-0.5 0.1-0.9 0.2-1.4 0.3q-0.8 0.1-1.5 0.3c-0.5 0.1-1 0.2-1.5 0.3-0.4 0.2-0.9 0.2-1.4 0.4q-0.7 0.1-1.4 0.3-0.7 0.2-1.5 0.4c-0.4 0.1-0.9 0.3-1.3 0.4-0.5 0.2-1 0.3-1.4 0.5-0.5 0.1-0.9 0.2-1.4 0.4-0.5 0.2-0.9 0.3-1.4 0.5q-0.7 0.2-1.4 0.5-0.6 0.2-1.3 0.5c-0.5 0.1-0.9 0.3-1.4 0.5q-0.6 0.2-1.3 0.5c-0.4 0.2-0.8 0.4-1.3 0.6q-0.6 0.2-1.3 0.5-0.6 0.3-1.3 0.6-0.5 0.3-1.2 0.6c-0.4 0.2-0.8 0.5-1.3 0.7-0.4 0.2-0.8 0.4-1.2 0.6q-0.6 0.3-1.2 0.7-0.6 0.3-1.2 0.7-0.6 0.3-1.2 0.7c-0.4 0.2-0.8 0.5-1.2 0.7-0.4 0.2-0.8 0.4-1.2 0.7-0.3 0.3-0.8 0.5-1.1 0.8-0.4 0.2-0.8 0.5-1.2 0.7q-0.5 0.4-1.1 0.8c-0.4 0.3-0.7 0.6-1.1 0.9-0.4 0.2-0.7 0.5-1.1 0.8-0.4 0.3-0.7 0.5-1.1 0.8q-0.5 0.5-1.1 0.9c-0.3 0.3-0.6 0.6-1 0.9q-0.5 0.5-1.1 0.9c-0.3 0.3-0.6 0.6-1 0.9-0.4 0.4-0.7 0.7-1 1-0.3 0.4-0.7 0.7-1 1-0.3 0.3-0.7 0.7-1 1-0.3 0.3-0.7 0.7-0.9 1-0.4 0.3-0.7 0.7-1.1 1.1-0.2 0.3-0.6 0.6-0.9 1-0.3 0.3-0.6 0.7-0.9 1.1-0.3 0.3-0.6 0.7-0.9 1-0.4 0.4-0.6 0.8-1 1.2q-0.4 0.5-0.8 1.1c-0.3 0.4-0.6 0.8-0.9 1.2q-0.5 0.5-0.9 1-0.4 0.7-0.9 1.3-0.4 0.5-0.8 1.1c-0.3 0.5-0.6 0.9-0.9 1.4-0.3 0.4-0.5 0.7-0.8 1.1-0.3 0.4-0.6 0.9-0.9 1.4-0.2 0.4-0.4 0.7-0.7 1.1-0.3 0.5-0.6 1-0.9 1.5q-0.3 0.6-0.6 1.1c-0.3 0.6-0.6 1.1-1 1.7q-0.3 0.5-0.5 1c-0.4 0.8-0.8 1.5-1.2 2.3q-0.2 0.2-0.3 0.5l69.6 98.5c4.2-5 9-9.3 14.2-13q2.5-1.7 5-3.2c16.1-9.9 35.6-14.8 54.5-19.8zm-41.4 23.4c-11.3 5.4-21.2 12.6-28.6 23.3-0.9 1.3-2.3 2.1-3.8 2.1q-0.6 0-1.2-0.1c-0.9-0.3-1.7-0.8-2.4-1.4-0.1-0.2-0.2-0.3-0.4-0.5l-64.2-91-4.6 3.2 72.8 103.1 8.5-12.1c7-10.2 15-19 23.9-26.6zm142.7-84.8l-72.8-103.1-4.6 3.2 64.3 91c0.9 1.3 1.1 2.9 0.6 4.4-0.5 1.4-1.8 2.6-3.3 2.9-12.5 3.5-22.6 10.3-31.5 19.2 10-5.9 21.1-10.5 33-13.7l14.3-3.9zm1141.2-262.7l79.5 112.6c0.9 1.2 1.1 2.9 0.6 4.3-0.3 0.9-0.9 1.7-1.7 2.3q-0.7 0.5-1.6 0.7l-20.9 5.6c-14.2 3.9-27.1 9.8-38.3 17.7-11.3 7.9-21.2 18.1-29.6 30.3l-3.1 4.5c0 0-0.1 0.1-0.1 0.2-0.1 0-0.1 0-0.1 0.1 0 0-0.1 0-0.1 0.1q0 0.1-0.1 0.1c-0.1 0.1-0.1 0.1-0.2 0.2 0 0 0 0-0.1 0q0 0 0 0.1-0.1 0-0.1 0.1-0.1 0-0.1 0c-0.1 0.1-0.3 0.2-0.4 0.3-0.1 0-0.2 0.1-0.3 0.2q-0.1 0.1-0.1 0c0 0.1-0.1 0.1-0.2 0.1q0 0 0 0.1-0.1 0-0.1 0.1c-0.2 0-0.3 0.1-0.4 0.1 0 0-0.1 0-0.1 0-0.1 0.1-0.1 0.1-0.1 0.1-0.1 0-0.2 0-0.2 0l-5.4 1.5c-14.2 3.8-27.2 9.8-38.3 17.7-11.2 7.9-21.1 18.1-29.5 30.2l-12.3 17.8c-0.9 1.3-2.4 2.1-3.9 2.1-1.6 0-3-0.7-3.9-2l-79.5-112.6c-1.5-2.1-1-5.1 1.1-6.6l8.4-5.9-5.2-7.4c-1-1.4-1.2-3.3-0.4-4.8 0.6-1.1 1.1-2.1 1.6-3.2q0.3-0.4 0.5-0.8c0.4-0.8 0.8-1.5 1.2-2.2 0.2-0.4 0.4-0.8 0.6-1.2q0.6-0.9 1.1-1.8c0.3-0.4 0.6-0.8 0.8-1.2q0.5-0.9 1-1.7c0.3-0.4 0.6-0.9 0.9-1.3 0.3-0.5 0.6-1 1-1.5 0.3-0.4 0.6-0.9 0.9-1.3 0.3-0.4 0.7-1 1-1.4 0.3-0.5 0.6-0.8 0.9-1.3 0.4-0.4 0.7-0.9 1.1-1.4 0.3-0.4 0.6-0.8 0.9-1.2q0.6-0.6 1.1-1.3 0.5-0.6 1-1.2c0.4-0.4 0.7-0.8 1.1-1.3 0.3-0.4 0.7-0.7 1.1-1.1q0.5-0.6 1.1-1.3c0.3-0.3 0.7-0.7 1-1.1 0.4-0.4 0.8-0.8 1.2-1.2q0.5-0.5 1.1-1.1c0.4-0.3 0.7-0.7 1.1-1.1 0.4-0.4 0.8-0.7 1.2-1 0.4-0.4 0.7-0.8 1.2-1.1q0.5-0.6 1.1-1.1c0.4-0.3 0.8-0.6 1.3-1 0.3-0.3 0.8-0.6 1.2-0.9 0.4-0.4 0.8-0.7 1.2-1 0.5-0.4 0.9-0.7 1.3-1 0.4-0.3 0.8-0.6 1.3-0.9q0.6-0.5 1.3-1c0.4-0.2 0.8-0.5 1.3-0.8q0.6-0.5 1.3-0.9c0.4-0.3 0.9-0.6 1.3-0.8q0.7-0.5 1.3-0.8c0.5-0.3 1-0.6 1.4-0.8 0.5-0.3 0.9-0.5 1.4-0.8 0.4-0.3 0.9-0.5 1.4-0.8 0.5-0.2 0.9-0.5 1.4-0.7 0.4-0.2 0.9-0.5 1.4-0.7q0.7-0.3 1.4-0.7c0.5-0.2 1-0.4 1.5-0.7q0.7-0.3 1.4-0.6c0.5-0.2 1-0.4 1.5-0.6q0.7-0.3 1.5-0.6c0.5-0.2 1-0.4 1.5-0.6 0.5-0.2 1-0.3 1.5-0.5 0.6-0.2 1.1-0.4 1.6-0.6 0.5-0.1 1-0.3 1.5-0.5 0.6-0.2 1.1-0.3 1.6-0.5q0.8-0.2 1.6-0.5c0.6-0.1 1.1-0.3 1.6-0.4q0.8-0.2 1.6-0.4c0.6-0.2 1.1-0.3 1.7-0.4q0.8-0.2 1.6-0.4c0.6-0.1 1.1-0.2 1.7-0.3q0.8-0.2 1.6-0.3 0.9-0.2 1.8-0.4c0.6-0.1 1.1-0.2 1.7-0.2 0.6-0.1 1.2-0.2 1.8-0.3 0.6-0.1 1.1-0.2 1.6-0.2 0.2 0 0.4-0.1 0.5-0.1 0.1-0.2 0.2-0.3 0.2-0.4 0.3-0.5 0.6-1 0.8-1.4q0.4-0.9 0.9-1.7c0.2-0.4 0.5-0.9 0.8-1.4q0.4-0.8 0.9-1.6c0.2-0.4 0.5-0.9 0.8-1.3 0.3-0.5 0.6-1 0.9-1.6 0.3-0.4 0.6-0.8 0.9-1.3q0.4-0.8 0.9-1.5c0.4-0.4 0.6-0.9 0.9-1.3 0.4-0.5 0.7-1 1-1.4 0.4-0.5 0.6-0.9 1-1.3q0.5-0.7 1-1.4c0.3-0.5 0.6-0.9 0.9-1.3q0.6-0.6 1.1-1.3c0.3-0.4 0.6-0.8 1-1.2 0.4-0.4 0.7-0.9 1.1-1.3 0.3-0.4 0.7-0.7 1-1.1q0.6-0.7 1.1-1.3c0.4-0.4 0.7-0.7 1.1-1.1 0.4-0.4 0.8-0.8 1.2-1.2 0.3-0.4 0.7-0.7 1-1.1q0.6-0.5 1.2-1.1c0.4-0.4 0.8-0.7 1.1-1.1q0.6-0.5 1.3-1.1 0.5-0.5 1.1-1 0.6-0.5 1.2-1 0.6-0.5 1.2-1c0.4-0.3 0.9-0.7 1.3-1 0.4-0.3 0.8-0.6 1.2-0.9q0.6-0.5 1.3-1 0.6-0.4 1.2-0.8c0.5-0.4 0.9-0.7 1.4-1 0.4-0.2 0.8-0.5 1.2-0.8 0.5-0.3 0.9-0.6 1.4-0.9q0.6-0.4 1.3-0.8 0.7-0.4 1.4-0.8 0.6-0.4 1.3-0.8c0.5-0.2 1-0.5 1.5-0.7 0.4-0.2 0.8-0.5 1.3-0.7q0.8-0.4 1.5-0.8c0.5-0.2 0.9-0.4 1.4-0.6q0.7-0.4 1.5-0.7c0.4-0.3 0.9-0.4 1.4-0.6q0.8-0.4 1.5-0.7c0.5-0.2 1-0.4 1.4-0.6 0.6-0.2 1.1-0.4 1.6-0.6 0.5-0.2 1-0.3 1.5-0.5q0.8-0.3 1.7-0.6c0.4-0.1 0.9-0.3 1.4-0.5 0.5-0.1 1.1-0.3 1.7-0.5 0.4-0.2 0.9-0.3 1.4-0.4 0.6-0.2 1.2-0.4 1.8-0.5q0.7-0.2 1.5-0.4 0.9-0.3 1.8-0.5c0.5-0.1 0.9-0.2 1.4-0.3 0.7-0.2 1.3-0.3 2-0.4q0.7-0.2 1.4-0.3c0.7-0.2 1.4-0.3 2.1-0.4 0.4-0.1 0.9-0.2 1.3-0.3 0.8-0.1 1.6-0.2 2.5-0.3q0.4-0.1 0.9-0.2c1.2-0.2 2.3-0.3 3.5-0.4 1.8-0.2 3.4 0.5 4.4 2l5.2 7.3 8.5-5.9c2.1-1.6 5.1-1 6.7 0.9zm43.1 104.2l-69.6-98.6q-1.5 0.2-3.1 0.5c-0.3 0.1-0.7 0.1-1 0.2-0.7 0.1-1.3 0.2-2 0.3-0.4 0.1-0.8 0.2-1.2 0.2q-0.9 0.2-1.8 0.4c-0.4 0.1-0.8 0.2-1.3 0.3-0.5 0.1-1.1 0.2-1.6 0.4-0.4 0-0.8 0.2-1.3 0.3-0.5 0.1-1 0.3-1.5 0.4q-0.7 0.2-1.4 0.4c-0.5 0.1-0.9 0.3-1.5 0.4-0.4 0.1-0.9 0.3-1.3 0.4-0.5 0.2-1 0.3-1.4 0.5-0.4 0.1-0.9 0.3-1.3 0.4q-0.7 0.3-1.4 0.5c-0.5 0.2-0.9 0.4-1.3 0.5-0.5 0.2-0.9 0.4-1.4 0.6-0.4 0.1-0.8 0.3-1.2 0.5q-0.7 0.3-1.4 0.6-0.6 0.2-1.2 0.6-0.7 0.3-1.3 0.6c-0.4 0.2-0.8 0.4-1.3 0.6-0.4 0.2-0.8 0.4-1.2 0.6q-0.6 0.3-1.2 0.7c-0.4 0.2-0.8 0.4-1.2 0.7q-0.6 0.3-1.2 0.7c-0.4 0.2-0.8 0.5-1.2 0.7q-0.6 0.3-1.2 0.7c-0.3 0.3-0.7 0.5-1.1 0.8q-0.6 0.3-1.2 0.8c-0.3 0.2-0.7 0.5-1.1 0.7q-0.5 0.5-1.1 0.9c-0.3 0.2-0.7 0.5-1 0.8-0.4 0.3-0.8 0.5-1.1 0.8-0.4 0.3-0.7 0.6-1.1 0.9q-0.5 0.5-1.1 0.9c-0.3 0.3-0.6 0.6-1 0.9-0.4 0.3-0.7 0.6-1 0.9-0.4 0.3-0.7 0.7-1 0.9-0.4 0.4-0.7 0.7-1.1 1-0.3 0.3-0.6 0.7-0.9 1q-0.6 0.5-1.1 1c-0.3 0.3-0.6 0.7-0.9 1q-0.5 0.5-1 1.1c-0.3 0.3-0.6 0.6-0.9 1q-0.5 0.5-1 1.1c-0.3 0.3-0.6 0.7-0.9 1.1q-0.5 0.6-0.9 1.1c-0.3 0.4-0.6 0.8-0.9 1.1-0.3 0.5-0.6 0.8-0.9 1.2-0.3 0.5-0.5 0.8-0.8 1.2q-0.5 0.6-0.9 1.2c-0.3 0.4-0.5 0.8-0.8 1.2q-0.4 0.7-0.8 1.3c-0.3 0.4-0.5 0.8-0.8 1.2-0.3 0.5-0.6 0.9-0.8 1.3q-0.4 0.6-0.8 1.3-0.4 0.6-0.8 1.3c-0.3 0.4-0.5 0.9-0.8 1.4-0.2 0.4-0.4 0.8-0.7 1.3-0.3 0.4-0.5 0.9-0.8 1.4-0.2 0.4-0.4 0.9-0.7 1.3 0 0 0 0.1 0 0.2l78.6 111.3c0.1-0.1 0.2-0.3 0.3-0.4 0.3-0.6 0.7-1.1 1-1.6 0.3-0.4 0.6-0.8 0.8-1.2 0.2-0.3 0.4-0.5 0.6-0.8 0.3-0.6 0.7-1.1 1.1-1.6q3.6-5.6 7.4-11c13.5-19.7 28.5-38.2 51-46.4zm-76.6 70q1.4-0.4 3-0.8c0.3-0.1 0.6-0.2 0.9-0.2q1.1-0.3 2.2-0.6c0.1 0 0.3-0.1 0.4-0.1l-78.6-111.4c0 0-0.1 0-0.2 0-0.5 0.1-1 0.2-1.5 0.2-0.5 0.1-1 0.2-1.6 0.3-0.5 0.1-0.9 0.2-1.4 0.2-0.5 0.1-1.1 0.2-1.6 0.3-0.5 0.1-1 0.2-1.5 0.3q-0.7 0.2-1.5 0.3c-0.4 0.1-0.9 0.2-1.4 0.3-0.5 0.2-1 0.3-1.5 0.4q-0.6 0.2-1.4 0.4-0.7 0.2-1.4 0.4c-0.4 0.1-0.9 0.2-1.4 0.4-0.4 0.1-0.9 0.3-1.4 0.4-0.4 0.1-0.9 0.3-1.3 0.4-0.5 0.2-1 0.3-1.4 0.5q-0.7 0.2-1.4 0.5-0.7 0.2-1.3 0.5c-0.5 0.1-0.9 0.3-1.4 0.5q-0.6 0.2-1.3 0.5c-0.4 0.2-0.9 0.4-1.3 0.6q-0.7 0.2-1.3 0.5-0.7 0.3-1.3 0.6-0.6 0.4-1.2 0.7c-0.5 0.2-0.9 0.4-1.3 0.6-0.4 0.2-0.8 0.4-1.2 0.7q-0.6 0.2-1.3 0.6-0.6 0.3-1.2 0.7-0.5 0.3-1.2 0.7c-0.4 0.2-0.7 0.5-1.1 0.7-0.5 0.3-0.8 0.5-1.2 0.7-0.4 0.3-0.8 0.5-1.2 0.8-0.4 0.2-0.7 0.5-1.1 0.8q-0.6 0.4-1.1 0.8c-0.4 0.3-0.7 0.5-1.1 0.8-0.4 0.2-0.8 0.5-1.1 0.8-0.4 0.3-0.8 0.6-1.1 0.9q-0.6 0.4-1.1 0.8c-0.4 0.4-0.7 0.6-1 0.9q-0.6 0.5-1.1 0.9c-0.4 0.3-0.7 0.7-1 1-0.4 0.3-0.7 0.6-1.1 1-0.3 0.3-0.6 0.6-0.9 0.9-0.4 0.3-0.7 0.7-1.1 1-0.3 0.4-0.6 0.7-0.9 1-0.3 0.3-0.7 0.7-1 1.1-0.3 0.3-0.6 0.7-0.9 1-0.3 0.3-0.7 0.7-1 1.1-0.2 0.3-0.6 0.7-0.9 1-0.3 0.4-0.6 0.8-0.9 1.2q-0.4 0.6-0.8 1.1c-0.4 0.4-0.7 0.8-1 1.2q-0.4 0.5-0.8 1.1-0.5 0.6-1 1.3-0.4 0.5-0.8 1c-0.2 0.5-0.6 0.9-0.9 1.4-0.2 0.4-0.4 0.7-0.7 1.1-0.3 0.5-0.6 0.9-0.9 1.4-0.3 0.4-0.5 0.8-0.7 1.1-0.3 0.5-0.6 1-0.9 1.6q-0.3 0.5-0.7 1c-0.3 0.6-0.6 1.1-0.9 1.7q-0.3 0.6-0.6 1.1c-0.4 0.7-0.7 1.4-1.1 2.2q-0.2 0.3-0.3 0.5l69.6 98.6c4.2-5.1 9-9.4 14.2-13q2.4-1.7 4.9-3.3c16.2-9.8 35.6-14.7 54.6-19.7zm-41.4 23.3c-11.4 5.4-21.2 12.6-28.6 23.4-0.9 1.3-2.3 2-3.9 2q-0.5 0-1.1-0.1c-0.9-0.2-1.8-0.7-2.4-1.4-0.2-0.2-0.3-0.3-0.4-0.5l-64.3-91-4.5 3.2 72.8 103.2 8.4-12.2c7-10.2 15.1-19 24-26.6zm142.7-84.8l-72.8-103.1-4.6 3.2 64.3 91c0.9 1.3 1.1 2.9 0.5 4.4-0.5 1.5-1.7 2.6-3.2 3-12.5 3.4-22.6 10.2-31.5 19.1 10-5.9 21-10.5 32.9-13.7l14.3-3.9zm-1715.7-77.9l78.7 120.1c0 0-27.7-3.7-49.6 22.7-15.6 18.8-28.1 34.3-34.1 41.7-0.8 1.1-1.6 2.3-2.5 3.4 0 0-0.1 0.1-0.1 0.2 0 0-0.1 0-0.1 0.1q-0.2 0.2-0.4 0.4 0 0-0.1 0-0.2 0.3-0.5 0.4-0.3 0.2-0.6 0.3 0 0 0 0.1c-0.2 0.1-0.4 0.1-0.6 0.2 0 0-0.1 0-0.1 0-0.1 0.1-0.1 0.1-0.2 0.1q-2.1 0.5-4.2 0.9c-9.1 2.5-28.3 7.8-51.8 14.6-32.9 9.5-40.6 36.4-40.6 36.4l-78.7-120.1 7.9-5.1-4.5-6.8c-0.9-1.4-1-3.3-0.2-4.8 16.6-31.5 51.6-33.7 85.4-35.8 3-0.2 6.2-0.3 9.2-0.6 1.4-2.7 2.9-5.5 4.2-8.2 15.5-30.1 31.5-61.3 67-64 1.7-0.1 3.3 0.7 4.3 2.2l4.4 6.7zm-106.4 207.8c2.9-3 6.1-5.6 9.5-7.8 15.6-10.2 36-12.7 55.9-15.1 7.2-0.8 14.8-1.8 21.9-3.1l-68-103.8q-4.6 0.3-9.2 0.6c-31.6 1.9-61.5 3.8-76.2 28.3zm87.8-201.8c-28.3 3.7-42 30.4-56.4 58.6q-2 4.1-4.2 8.1l68 103.9c4.1-6.1 7.9-12.6 11.6-18.9 12.3-21 25-42.6 47.1-50.7zm1241.6 95.9l78.7 120.1c0 0-27.7-3.7-49.6 22.7-15.6 18.8-28.2 34.3-34.1 41.7-0.8 1.1-1.6 2.3-2.5 3.4 0 0.1-0.1 0.1-0.1 0.2 0 0-0.1 0-0.1 0.1q-0.2 0.2-0.4 0.4 0 0-0.1 0-0.2 0.3-0.5 0.4-0.3 0.2-0.6 0.3 0 0 0 0.1c-0.2 0.1-0.4 0.1-0.6 0.2 0 0-0.1 0-0.1 0-0.1 0.1-0.2 0.1-0.2 0.1q-2.1 0.5-4.2 0.9c-9.1 2.5-28.3 7.8-51.8 14.6-32.9 9.6-40.6 36.4-40.6 36.4l-78.7-120.1 7.8-5.1-4.4-6.8c-0.9-1.4-1-3.2-0.2-4.8 16.6-31.5 51.6-33.7 85.4-35.8 3-0.2 6.2-0.3 9.2-0.6 1.4-2.7 2.9-5.5 4.2-8.1 15.5-30.2 31.5-61.4 67-64 1.7-0.2 3.3 0.6 4.3 2.1l4.4 6.7zm-106.4 207.8c2.9-3 6.1-5.5 9.4-7.7 15.7-10.3 36.1-12.8 55.9-15.2 7.3-0.8 14.8-1.8 22-3l-68-103.9q-4.6 0.3-9.2 0.6c-31.6 1.9-61.5 3.8-76.2 28.3zm87.8-201.8c-28.3 3.7-42 30.4-56.4 58.6q-2.1 4.1-4.2 8.1l68 103.9c4.1-6.1 7.9-12.6 11.6-18.9 12.3-20.9 25-42.6 47.1-50.7zm1251.6-132.1l78.7 120.1c0 0-27.7-3.6-49.6 22.7-15.6 18.8-28.2 34.3-34.1 41.7-0.9 1.2-1.7 2.3-2.5 3.4 0 0.1-0.1 0.2-0.1 0.2-0.1 0-0.1 0.1-0.1 0.1q-0.2 0.2-0.4 0.4 0 0-0.1 0.1-0.2 0.2-0.5 0.3-0.3 0.2-0.6 0.4 0 0 0 0c-0.2 0.1-0.4 0.1-0.6 0.2 0 0-0.1 0-0.1 0.1-0.1 0-0.2 0-0.2 0q-2.1 0.5-4.2 0.9c-9.1 2.5-28.3 7.8-51.8 14.6-32.9 9.6-40.6 36.4-40.6 36.4l-78.7-120.1 7.8-5.1-4.4-6.8c-0.9-1.4-1-3.2-0.2-4.8 16.6-31.5 51.6-33.7 85.4-35.7 3-0.2 6.2-0.4 9.2-0.6 1.4-2.7 2.8-5.5 4.2-8.2 15.5-30.2 31.5-61.4 67-64 1.7-0.2 3.3 0.6 4.3 2.1l4.4 6.7zm-106.4 207.8c2.9-3 6.1-5.5 9.4-7.7 15.7-10.3 36.1-12.8 55.9-15.2 7.3-0.8 14.8-1.7 22-3l-68-103.9q-4.6 0.3-9.2 0.6c-31.6 2-61.5 3.8-76.2 28.3zm87.8-201.8c-28.3 3.7-42 30.4-56.4 58.6q-2.1 4.1-4.2 8.2l68 103.8c4.1-6.1 7.9-12.5 11.6-18.9 12.3-20.9 25-42.5 47.1-50.7z"/>
</svg>